<?xml version="1.0" encoding="utf-8"?>
<!-- Generator: Adobe Illustrator 27.5.0, SVG Export Plug-In . SVG Version: 6.00 Build 0)  -->
<svg version="1.1" xmlns="http://www.w3.org/2000/svg" xmlns:xlink="http://www.w3.org/1999/xlink" x="0px" y="0px"
	 viewBox="0 0 2000 2000" style="enable-background:new 0 0 2000 2000;" xml:space="preserve">
<g id="Layer_7">
	<rect style="fill:#262624;" width="2000" height="2000"/>
</g>
<g id="Layer_3">
	<g>
		<g>
			<path style="fill:#464642;" d="M520.272,450.359c-2.453,25.757,19.625-82.178,31.89-110.389
				c12.266-28.21,73.592-91.991,80.952-103.03c7.359-11.038-67.46,73.593-87.084,69.913c-19.625-3.68-62.554-57.647-66.233-51.515
				c-3.155,5.259,50.289,61.327,52.742,85.858C534.991,365.728,522.725,424.602,520.272,450.359z"/>
			<path style="fill:#464642;" d="M352.234,138.819c18.398,1.227,74.821,67.458,77.274,63.778s-56.422-65.007-67.46-104.256
				c-1.128-4.008-1.956-7.877-2.539-11.629c0.217-0.928,0.054-2.39-0.57-4.395c-2.518-24.044,5.707-42.911,17.354-59.252
				c1.362-1.324,2.793-2.647,4.331-3.966c6.241-5.349,14.037-11.993,22.849-19.1h-10.897c-15.516,16.833-30.158,31.845-33.78,35.467
				c-3.604,3.604-6.678,6.411-9.457,7.962c-13.172,2.842-36.62-37.948-40.032-33.399c-0.202,0.269-0.286,0.63-0.272,1.069
				c-3.573-3.708-7.153-7.46-10.577-11.099h-3.568c14.495,19.605,36.216,48.01,44.639,63.817c3.219,7.811,5.348,15.803,5.348,23.485
				c0,33.117-69.913,99.351-78.499,110.389C257.792,208.73,333.836,137.592,352.234,138.819z"/>
			<path style="fill:#464642;" d="M121.608,0h-6.935h-13.602h-0.116c-7.479,4.608-15.203,9.119-22.24,12.485
				c-28.21,13.492-38.022,11.039-65.006,8.586C9.053,20.647,4.438,20.114,0,19.554v3.338v9.511v6.009
				c3.116,1.928,5.123,3.888,5.123,5.964c0,2.56-1.776,8.375-5.123,16.27v10.113v24.814v2.91
				c12.959-10.989,26.327-22.531,37.013-32.029C61.948,44.288,100.093,18.646,121.608,0z"/>
			<path style="fill:#464642;" d="M11.255,298.27c-4.178,8.354,79.725,3.68,96.896,19.625
				c17.172,15.945,72.367,111.616,82.179,125.107s-31.89-66.234-12.266-111.616c19.625-45.382,50.288-83.404,55.194-91.99
				c4.906-8.586-55.194,50.288-77.272,61.327c-22.078,11.039-44.156,1.227-67.46-1.226c-14.523-1.529-40-3.533-57.733-3.64
				C21.919,295.02,11.262,294.01,0,292.929v3.501c5.355,0.021,10.525,0.086,15.413,0.181C13.1,296.993,11.623,297.534,11.255,298.27
				z"/>
			<path style="fill:#464642;" d="M297.038,655.195c7.359,17.172,6.132,42.93-3.68,77.272c-9.812,34.343,8.586-18.398,33.117-46.609
				c24.531-28.211,46.608-36.796,55.194-41.702c8.586-4.906-26.984,11.039-58.874-1.227c-31.89-12.266-54.996-60.714-50.288-44.156
				c6.647,23.378-8.513,25.272-36.796,22.078C222.305,619.337,289.679,638.023,297.038,655.195z"/>
			<path style="fill:#464642;" d="M749.118,140.817c18.95,7.58,13.265-5.685,3.79-22.74c-9.475-17.055-17.055-36.005-22.74-22.74
				c-5.685,13.265-73.906,111.806-77.696,119.386C647.046,225.576,730.168,133.237,749.118,140.817z"/>
			<path style="fill:#464642;" d="M834.394,307.578c1.895,15.16,0-70.115,5.685-90.96c5.685-20.845,3.791-18.95-11.37-22.74
				c-15.16-3.79-30.32-15.16-30.32-15.16c-5.685-5.685,0,11.37,7.58,32.215C813.549,231.778,832.498,292.418,834.394,307.578z"/>
			<path style="fill:#464642;" d="M1067.48,116.182c7.58-5.685,7.581-49.271,1.896-41.69c-5.686,7.58-18.95,24.635-87.171,60.641
				C972.011,140.512,1059.9,121.867,1067.48,116.182z"/>
			<path style="fill:#464642;" d="M1107.276,239.358c-0.697,13.247,7.579-72.011,17.055-96.646
				c9.476-24.635,30.32-37.9,9.476-28.425s-32.216,7.58-32.216,7.58C1099.695,127.552,1111.066,167.348,1107.276,239.358z"/>
			<path style="fill:#464642;" d="M1245.612,101.021l-62.535-43.585c7.58,11.37,9.475,28.425-7.58,37.9
				C1175.497,95.336,1205.817,93.441,1245.612,101.021z"/>
			<path style="fill:#464642;" d="M1364.998,157.872c3.79,5.685-8.029-35.096,18.502-61.626
				c9.476-9.475-35.558,19.936-105.673,8.565c-5.291-0.858,51.164,13.265,70.115,26.53S1361.208,152.187,1364.998,157.872z"/>
			<path style="fill:#464642;" d="M1368.788,182.507c-1.148,44.807-27.372,102.147-47.845,140.357
				c49.176-78.117,107.013-138.595,87.641-123.302C1372.578,227.988,1369.132,169.112,1368.788,182.507z"/>
			<path style="fill:#464642;" d="M1320.943,322.864c-8.456,13.433-16.658,27.384-24.166,41.564
				C1296.777,364.429,1307.648,347.678,1320.943,322.864z"/>
			<path style="fill:#464642;" d="M1184.971,394.749c5.684,5.685,60.642,32.215,62.536,70.116
				c1.895,37.9-39.795,113.701-41.689,121.281s32.215-51.166,43.585-60.64c11.37-9.475,62.535,32.215,54.955,18.95
				c-7.58-13.265-41.69-64.43-41.69-87.17c0-22.74,21.493-60.593,18.95-68.221c-1.896-5.685-18.95,22.74-34.11,22.74
				S1179.287,389.064,1184.971,394.749z"/>
			<path style="fill:#464642;" d="M984.1,372.009c11.37-1.895,70.116-26.53,96.646-20.845c26.53,5.685,68.221,30.32,83.381,36.005
				c15.16,5.685-41.69-28.425-51.166-45.48s-5.685-54.956-5.685-62.536c0,0-11.37,37.9-24.636,49.271
				C1069.375,339.793,972.73,373.904,984.1,372.009z"/>
			<path style="fill:#464642;" d="M840.257,369.782c-0.104-2.189-0.178-3.458-0.178-3.458
				C840.079,367.325,840.141,368.494,840.257,369.782z"/>
			<path style="fill:#464642;" d="M840.079,421.279c-1.895,22.74-13.265,119.386-13.265,119.386s18.95-75.8,22.74-92.855
				c3.79-17.055,62.536-49.271,62.536-49.271s-37.9,11.37-51.166,11.37c-12.097,0-19.463-26.786-20.667-40.127
				C840.68,378.685,841.6,403.027,840.079,421.279z"/>
			<path style="fill:#464642;" d="M805.969,608.886c-9.475,7.58-64.431,37.9-68.221,41.69c-3.79,3.79,73.906-28.425,85.276-17.055
				c11.37,11.37,43.585,56.851,43.585,56.851s-34.111-62.536-39.795-77.696c-5.685-15.16-1.895-53.061-1.895-53.061
				S815.444,601.306,805.969,608.886z"/>
			<path style="fill:#464642;" d="M605.097,652.471c-20.845-7.58-98.54-34.11-106.121-51.165
				c-7.58-17.055,9.475-77.695,9.475-77.695s-20.845,73.905-28.425,87.17c-7.58,13.265-47.375,24.635-47.375,24.635
				s28.425,0,60.641,0S625.942,660.051,605.097,652.471z"/>
			<path style="fill:#464642;" d="M722.588,652.472c0,0-30.485,15.819-49.271,18.95c-11.37,1.895-47.375-11.37-47.375-11.37
				s26.53,11.37,39.795,26.53c13.265,15.16,43.585,60.641,43.585,60.641s-20.845-56.85-11.37-68.22
				C707.428,667.632,722.588,652.472,722.588,652.472z"/>
			<path style="fill:#464642;" d="M265.889,804.073c-11.37,17.055-49.27,66.326-73.906,109.911
				c41.69-62.536,72.011-79.591,85.276-85.276c13.265-5.685,32.215,13.265,32.215,13.265c-22.74-47.375-18.95-85.275-18.95-85.275
				S277.259,787.018,265.889,804.073z"/>
			<path style="fill:#464642;" d="M172.593,939.135c0.286-0.335,0.44-0.516,0.44-0.516S172.876,938.802,172.593,939.135z"/>
			<path style="fill:#464642;" d="M172.593,939.135c-4.488,5.246-42.5,49.209-62.096,56.334c-20.845,7.58-96.645-3.79-96.645-3.79
				s70.115,13.265,87.17,18.95c17.055,5.685,34.11,62.535,34.11,62.535s-11.37-47.375-9.475-64.431
				C127.444,992.659,167.945,944.604,172.593,939.135z"/>
			<path style="fill:#464642;" d="M430.755,1054.215c18.95,3.79,87.171,70.116,87.171,70.116S445.915,1039.056,440.23,1022
				c-5.685-17.056,58.746-68.221,58.746-68.221s-56.851,30.32-77.696,36.005c-20.845,5.685-51.166-41.691-51.166-41.691
				s26.53,51.166,24.635,70.116c-1.895,18.95-60.64,85.275-75.8,100.435C364.43,1084.535,411.805,1050.425,430.755,1054.215z"/>
			<path style="fill:#464642;" d="M771.491,829.492c8.748-0.986,15.528-2.679,15.528-2.679S781.605,827.38,771.491,829.492z"/>
			<path style="fill:#464642;" d="M771.491,829.492c-9.755,1.099-21.959,1.318-29.953-2.679c-15.16-7.58-18.95-43.586-18.95-43.586
				s-5.685,20.845-18.95,36.005c-13.265,15.16-142.126,104.226-142.126,104.226C663.277,857.526,740.093,836.047,771.491,829.492z"
				/>
			<path style="fill:#464642;" d="M870.399,701.742c20.845,39.795,22.74,56.851,15.16,66.326
				c-7.58,9.475-28.425,28.425-70.115,47.375c-8.626,3.921,26.53,11.37,47.375,43.585c20.845,32.215,36.005,54.956,28.425,34.11
				c-7.58-20.845-34.109-58.746-26.53-79.591c7.58-20.845,43.585-47.375,68.22-43.585c24.635,3.79,24.635,1.895,0-7.58
				C908.299,752.908,887.454,724.482,870.399,701.742z"/>
			<path style="fill:#464642;" d="M1013.271,799.251c-5.866-2.5-11.815-4.727-17.801-6.548
				C1001.702,795.252,1007.632,797.413,1013.271,799.251z"/>
			<path style="fill:#464642;" d="M671.423,1281.618c-18.95,3.79-49.271-32.216-83.381-62.535c0,0,77.696,83.381,77.696,106.12
				c7.58-13.265,54.956-60.64,75.801-83.38s45.48-22.741,79.59-5.687c-32.215-24.636,18.95-136.44,43.585-180.026
				c-13.265,17.055-72.011,100.436-96.646,126.966C743.433,1209.605,690.373,1277.828,671.423,1281.618z"/>
			<path style="fill:#464642;" d="M233.674,1277.827c-5.685-30.32-9.475-45.48,15.16-85.275c24.635-39.795-3.79-13.265-15.16-5.686
				s-28.425,24.636-47.375-1.895s-41.69-75.801-41.69-75.801s7.58,28.426-3.79,43.586c-11.37,15.16-89.066,15.16-89.066,15.16
				c45.481,1.896,100.436-3.79,130.756,28.425S216.619,1247.507,233.674,1277.827z"/>
			<path style="fill:#464642;" d="M351.165,1455.96c-49.271-1.895-70.116-18.949-85.276-54.955
				c17.055,47.375,5.685,75.8-17.055,113.7C273.469,1486.28,294.314,1459.75,351.165,1455.96z"/>
			<path style="fill:#464642;" d="M728.273,1499.545c-30.32-36.006-72.011-96.646-77.696-123.176
				c-1.895,13.265-20.845,45.48-34.11,49.271c-13.265,3.79-125.071,17.056-180.026,22.74c0,0,181.921-11.37,210.347-11.37
				S697.953,1474.91,728.273,1499.545z"/>
			<path style="fill:#464642;" d="M1105.044,1346.518c-0.839-0.21-1.972-0.403-3.351-0.575
				C1105.807,1346.815,1107.352,1347.095,1105.044,1346.518z"/>
			<path style="fill:#464642;" d="M1015.003,1358.796c17.631-13.853,70.135-14.918,86.69-12.854
				c-15.34-3.256-66.538-14.798-88.055-21.253c-27.285-8.186-90.041-45.021-85.948-36.835c3.451,6.902,61.392,31.378,66.849,51.842
				c5.457,20.464-28.649,111.868-32.742,122.782C957.704,1473.393,995.903,1373.803,1015.003,1358.796z"/>
			<path style="fill:#464642;" d="M1085.944,1733.966c-5.457-16.371,2.729-58.663,8.186-68.213s-24.557,8.186-87.313,4.093
				s-76.398-28.649-81.856-38.199c-5.457-9.55,5.457-57.299,16.371-99.591c10.914-42.292,16.371-54.57,8.186-40.928
				c-8.186,13.643-55.935,90.041-70.941,111.869c-8.776,12.765-19.415,12.461-28.376,9.194
				c-13.486-8.953-31.825-20.048-49.386-31.022c-10.914-6.821-46.385-57.299-47.749-51.842c0,0,31.378,39.563,30.014,51.842
				c-1.364,12.278-40.928,46.385-53.206,55.935c-12.278,9.55-77.763,51.842-118.69,73.67c-20.464,10.914-2.729,8.186,27.285-6.821
				c30.014-15.007,65.484-34.106,75.034-24.557s19.1,43.656,19.1,27.285s5.457-53.206,21.828-76.398s31.706-26.325,40.928-30.014
				c10.221-4.089,43.405,9.812,56.545,15.037c11.25,6.973,26.65,16.005,41.681,23.162c28.649,13.643,65.484,39.563,62.756,50.478
				c-2.301,9.203-54.07,31.985-61.25,35.632c-29.615,10.202-57.957,19.357-83.361,21.667c-30.013,2.729-60.027-8.186-60.027-8.186
				c6.821,9.55,27.285,28.649,31.378,45.021c4.093,16.371,9.55,38.199,5.457,53.206c-4.093,15.007,23.192-42.292,45.02-64.12
				c21.04-21.04,47.155-38.266,74.67-51.701c39.873-12.079,92.233-17.493,123.147-13.783
				C1065.48,1710.773,1091.401,1750.337,1085.944,1733.966z"/>
			<path style="fill:#464642;" d="M195.539,1611.457c1.45-1.894,2.274-3.002,2.274-3.002S196.889,1609.547,195.539,1611.457z"/>
			<path style="fill:#464642;" d="M294.889,2000h3.568c-6.255-6.649-11.971-12.904-16.06-17.739
				C284.601,1985.934,289.189,1992.291,294.889,2000z"/>
			<path style="fill:#464642;" d="M481.923,1873.81l-7.166-14.332c-9.55-17.735-25.921-49.113-12.278-66.849
				c27.949-36.334,94.134-51.842,103.684-58.663c0,0-39.564,9.55-57.299,6.821c-17.735-2.729-35.471-8.186-47.749-12.278
				c17.735,12.278,30.014,15.007,20.464,24.557s-16.371,35.471-42.292,47.749s-40.928-17.735-51.842-32.742
				c-10.914-15.007-15.007-35.471,1.364-38.199s38.199-2.729,38.199-2.729s-69.577-8.186-113.233-20.464
				c-43.656-12.278-109.141-24.557-124.148-47.749c-12.024-18.582,0.467-39.777,5.911-47.475
				c-8.617,11.254-39.451,50.399-52.296,51.567c-15.007,1.364-60.027,1.364-60.027,1.364s83.219,2.729,109.14,15.007
				s32.742,23.192,35.471,39.563c2.729,16.371,6.821,35.471-8.186,53.206c-15.007,17.735-111.869,6.821-130.968,6.821
				c36.834,9.55,95.497,21.828,100.954,35.471c3.813,9.532,0.301,30.374-2.162,42.075c-20.233,63.904-41.759,100.056-61.958,118.907
				c-8.285,7.732-15.677,16.583-24.436,24.561h13.602c18.735-15.355,34.929-28.648,42.212-34.11
				c16.371-12.278,51.842-39.563,66.849-32.742c15.007,6.821,55.935,36.835,55.935,36.835s-66.849-55.935-77.763-73.67
				c-6.321-10.272-3.032-44.8-3.12-59.316c6.341-12.869,14.022-27.728,20.856-38.91c15.007-24.557,35.471-70.941,51.842-76.398
				c16.371-5.457,42.292-1.364,66.849,15.007c24.557,16.371,84.584,79.127,103.684,99.591c7.629,8.174,17.65,20.046,26.938,31.36
				c17.137,45.237-24.974,68.518-39.216,88.694c-7.848,11.118-22.875,28.161-37.162,43.66h10.897
				c31.642-25.518,76.405-57.006,109.484-55.938c42.292,1.364,106.412,24.557,106.412,24.557s-65.484-30.014-85.948-42.292
				C520.066,1918.313,499.743,1894.617,481.923,1873.81z"/>
			<path style="fill:#464642;" d="M2000,95.572V70.758c-13.775,21.055-38.203,54.749-38.203,54.749
				C1965.688,127.843,1981.126,113.303,2000,95.572z"/>
			<path style="fill:#464642;" d="M1987.717,25.917c4.809,2.061,8.924,4.208,12.283,6.485v-9.511
				C1983.559,21.94,1976.563,21.137,1987.717,25.917z"/>
			<path style="fill:#464642;" d="M683.488,1990.446c-12.278,2.729-40.928-4.093-51.842-9.55
				c-3.651-1.826,7.516,7.179,22.854,19.104h46.433c0.077-0.471,0.172-0.927,0.291-1.364c4.093-15.011,12.278-31.382,12.278-31.382
				S695.767,1987.718,683.488,1990.446z"/>
			<path style="fill:#464642;" d="M1152.793,1810.364c-13.643,9.55-23.192,6.821-34.106-16.371s-27.285-43.656-24.557-31.378
				c1.985,8.934,8.186,50.478,6.821,76.398s-6.821,81.855-6.821,90.041s16.371-62.756,32.742-84.584
				S1166.436,1800.814,1152.793,1810.364z"/>
			<path style="fill:#464642;" d="M1083.118,2000h8.507c3.403-9.461,7.047-16.833,10.69-15.011
				c4.586,2.293,16.021,9.295,25.193,15.011h4.767c-13.394-13.504-38.512-39.765-39.51-47.753
				C1092.378,1949.143,1086.934,1976.51,1083.118,2000z"/>
			<path style="fill:#464642;" d="M1438.836,1797.035c-25.959-8.718-113.75-39.069-134.61-57.612
				c-24.557-21.828-43.656-68.212-39.563-98.226s46.385-30.014,69.577-30.014s79.127-9.55,28.649-13.643
				s-110.505-1.364-122.783-31.378c13.643,35.471,15.007,46.385,10.914,62.756s-30.014,25.921-79.127,30.014
				c0,0,48.502,7.09,55.935,23.192c8.186,17.735-9.55,49.112-12.278,55.934c17.735-20.464,38.199-24.557,49.113-16.371
				s62.756,38.199,94.134,98.227c32.43,62.039-4.093-24.557,4.093-35.471C1369.506,1775.62,1419.804,1790.868,1438.836,1797.035z"/>
			<path style="fill:#464642;" d="M1438.836,1797.035c4.6,1.545,7.272,2.415,7.272,2.415S1443.348,1798.497,1438.836,1797.035z"/>
			<path style="fill:#464642;" d="M1404.793,1914.552c0,0,4.379,48.185,3.149,85.448h19.657
				c14.559-14.887,31.109-25.725,45.414-30.492C1440.799,1977.088,1416.163,1944.872,1404.793,1914.552z"/>
			<path style="fill:#464642;" d="M1780.973,1941.598c1.815-7.027,2.824-11.886,2.824-11.886S1782.311,1934.601,1780.973,1941.598z"
				/>
			<path style="fill:#464642;" d="M1629.569,1791.725c-0.69-2.584-1.164-4.139-1.164-4.139S1628.815,1789.157,1629.569,1791.725z"/>
			<path style="fill:#464642;" d="M1653.04,1834.961c-10.748-3.07-20.252-32.268-23.471-43.236
				c2.967,11.104,9.955,41.234,0.731,48.921c-11.37,9.476-45.48,3.792-83.381-9.474s-79.591-20.846-79.591-20.846
				c5.685,1.896,77.695,34.109,92.855,47.375c12.849,11.243,31.133,21.128,29.491,40.031c-2.738,3.398-6.185,7.214-10.541,11.135
				c-18.95,17.055-45.48,30.32-87.171,53.061c-4.99,2.722,47.375-13.266,87.171-9.476s73.906,19.295,109.911,47.548h144.911
				c-20.726-3.681-39.728-8.271-46.37-13.438c-11.346-8.824-9.273-31.063-6.614-44.965c-4.283,16.571-13.061,45.207-23.706,50.65
				c-15.16,7.752-100.436-22.74-130.756-41.69c-29.846-18.653-26.643-46.478-26.535-59.996
				c5.775-13.401,20.313-32.051,56.855-44.231c62.535-20.844,89.065-30.318,89.065-30.318S1666.305,1838.75,1653.04,1834.961z"/>
			<path style="fill:#464642;" d="M1897.497,1696.625c-11.369,36.006-13.264,51.166-30.319,62.536s-54.955,32.216-121.281,56.851
				c20.845,0,37.9-1.896,37.9,9.475s9.476,24.636,3.79,83.381c0,0,36.006-87.172,56.851-115.597s58.744-30.32,83.38-28.425
				C1901.287,1757.266,1893.707,1732.63,1897.497,1696.625z"/>
			<path style="fill:#464642;" d="M1816.012,1582.924c-15.16-11.37-34.11-18.949-26.53-58.745
				c-7.58,30.32-102.331,45.48-161.076,47.376c126.966,1.896,231.192,49.27,248.247,56.85s20.845,20.846,24.635,53.061
				c5.685-26.53,18.95-32.215,47.375-34.109c14.47-0.965,34.831,1.509,51.338,4.169v-1.758
				c-27.086-6.771-66.56-16.641-85.447-21.362C1884.232,1620.824,1831.172,1594.294,1816.012,1582.924z"/>
			<path style="fill:#464642;" d="M1637.337,1575.503c-10.613,0.657-53.052,2.902-69.572-2.054
				c-18.95-5.685-58.745-68.221-58.745-68.221c28.426,60.641,20.845,72.011-26.53,79.591s-90.961,22.74-75.801,20.845
				s102.331-9.475,115.596-5.685s20.846,24.635,43.586,62.535c-11.37-34.11,3.79-47.375,17.055-66.325
				C1594.302,1579.937,1627.979,1576.229,1637.337,1575.503z"/>
			<path style="fill:#464642;" d="M1637.337,1575.503c1.562-0.097,2.438-0.159,2.438-0.159S1638.89,1575.383,1637.337,1575.503z"/>
			<path style="fill:#464642;" d="M1449.527,1426.118c5.386,9.834,10.222,14.68,10.222,14.68S1455.449,1434.492,1449.527,1426.118z"
				/>
			<path style="fill:#464642;" d="M1449.527,1426.118c-6.771-12.364-14.414-32.622-14.414-61.121
				c0-51.166-9.475-72.01,36.006-85.275c-39.796,5.685-60.643,13.264-94.752-34.111c17.056,36.006,30.32,58.746,36.006,81.486
				s7.58,45.48-7.58,41.69s-98.54-28.426-98.54-28.426s102.33,36.006,113.7,47.376
				C1426.901,1394.686,1440.22,1412.958,1449.527,1426.118z"/>
			<path style="fill:#464642;" d="M1211.502,1336.571c17.055-7.58,81.485,3.79,81.485,3.79s-64.43-26.529-62.535-36.005
				s26.53-75.801,26.53-75.801s-34.111,64.43-58.746,89.065c-24.635,24.636-75.801,28.426-75.801,28.426s56.852,0,62.536,11.37
				s18.949,37.9,24.635,64.431C1209.606,1421.848,1194.447,1344.151,1211.502,1336.571z"/>
			<path style="fill:#464642;" d="M1306.253,1162.23c13.265,7.58,62.535,72.011,62.535,72.011s-54.955-92.856-62.535-123.177
				c-7.58-30.32-5.687-68.219,18.949-92.855c-24.635,17.054-62.442-0.591-73.813-15.753c-11.37-15.162-18.482-43.634-7.112-56.899
				c-26.53,5.685-32.776-6.939-64.991-23.995c3.89,3.63,8.493,8.545,13.536,14.314c-1.569-1.228-3.309-2.48-5.229-3.708
				c3.096,2.71,5.756,4.986,7.849,6.737c31.823,37.125,78.595,103.939,78.595,103.939c7.58,11.37,18.95,24.635,15.16,64.431
				s-18.95,92.856-18.95,92.856S1292.988,1154.65,1306.253,1162.23z"/>
			<path style="fill:#464642;" d="M1115.469,858.141c-4.055-6.431-7.777-12.863-10.088-18.063
				c-7.58-17.055,17.056-66.325,30.32-104.226c-11.37,24.635-39.795,70.115-54.955,72.01c-12.894,1.612-35.391,1.845-67.475-8.612
				c36.841,15.705,70.338,42.649,88.319,54.092c11.37,13.264,18.95,30.319,11.37,47.374s-70.116,58.745-70.116,58.745
				s68.222-36.005,100.437-37.9c20.338-1.196,34.629,4.406,44.313,10.606C1169.403,916.242,1136.241,885.353,1115.469,858.141z"/>
			<path style="fill:#464642;" d="M995.986,977.217c14.193-3.552,26.014-8.28,26.014-8.28S1011.041,972.11,995.986,977.217z"/>
			<path style="fill:#464642;" d="M900.719,915.877c0,0,13.265,51.165,3.79,77.696c-9.475,26.531-39.794,62.538-39.794,62.538
				s28.424-24.637,56.85-45.482c17.336-12.713,50.885-25.427,74.422-33.412c-14.222,3.559-30.827,5.938-40.312,1.195
				C936.724,968.938,910.194,925.352,900.719,915.877z"/>
			<path style="fill:#464642;" d="M1272.727,934.889c59.847-39.991,59.286-13.031,78.236-3.556
				c-5.685-5.685-1.125-26.826-6.811-60.936c-2.141-12.845,0.404-28.727,4.162-43c11.533-23.136,34.567-66.704,62.163-104.811
				c39.796-54.956,53.063-73.906,87.172-72.011s81.484,18.95,98.54,41.69c17.056,22.74,9.476,72.011-5.685,123.176
				c20.845-64.431,36.006-108.016,53.061-119.386c15.712-10.475,55.549-9.691,61.725-9.503c-7.573-0.282-66.253-2.974-76.885-18.922
				c-11.37-17.055-9.475-94.75-3.79-123.176c-15.16,53.06-18.951,58.746-28.426,68.221s-75.801,22.74-119.386,30.32
				c-43.585,7.58-77.695,11.371-130.756-49.27c39.795,45.48,62.535,72.01,58.745,89.065c-3.101,13.951-34.093,87.49-53.571,134.544
				c3.522-11.234,7.309-20.482,9.231-24.907C1328.44,861.646,1293.409,908.565,1272.727,934.889z"/>
			<path style="fill:#464642;" d="M1360.453,792.427c0.252-0.543,0.504-1.075,0.755-1.621
				C1362.185,788.681,1361.726,789.502,1360.453,792.427z"/>
			<path style="fill:#464642;" d="M1343.95,999.611c-3.398,3.249-5.482,5.332-5.482,5.332S1340.746,1002.971,1343.95,999.611z"/>
			<path style="fill:#464642;" d="M1591.605,799.327c0.516-1.823,0.794-2.836,0.794-2.836S1592.116,797.49,1591.605,799.327z"/>
			<path style="fill:#464642;" d="M1705.29,686.552c0.525,0.02,0.811,0.028,0.811,0.028S1705.817,686.568,1705.29,686.552z"/>
			<path style="fill:#464642;" d="M1572.847,973.998c0.34,0.085,0.608,0.152,0.837,0.209
				C1573.441,974.146,1573.158,974.075,1572.847,973.998z"/>
			<path style="fill:#464642;" d="M1572.847,973.998c-0.752-0.188-1.655-0.414-2.494-0.624
				C1571.402,973.637,1572.225,973.842,1572.847,973.998z"/>
			<path style="fill:#464642;" d="M1574.439,974.396C1574.51,974.414,1574.511,974.414,1574.439,974.396L1574.439,974.396z"/>
			<path style="fill:#464642;" d="M1574.439,974.396c-0.08-0.02-0.252-0.063-0.556-0.139
				C1574.152,974.324,1574.348,974.373,1574.439,974.396z"/>
			<path style="fill:#464642;" d="M1570.714,975.215c-0.356-0.641-0.712-1.313-1.065-2.017c-3.47-6.899-6.752-16.904-7.569-30.791
				c-1.718-29.196,24.581-125.318,29.526-143.08c-4.563,16.117-28.047,96.699-48.477,122.235
				c-22.74,28.425-73.905,22.74-117.49,26.53c-43.585,3.79-58.746-3.79-73.906-11.37c27.219,20.823,3.733,50.817-7.782,62.889
				c9.188-8.785,28.059-26.164,41.893-34.464c18.95-11.37,70.116-7.58,132.651,0c30.418,3.687,45.59,8.719,53.152,12.915
				l11.279,15.51c7.58,11.371,5.685,51.167,7.58,83.381c5.686-56.851,7.58-83.381,30.32-85.276
				c22.74-1.895,100.436-24.635,100.436-24.635S1599.951,995.168,1570.714,975.215z"/>
			<path style="fill:#464642;" d="M1789.482,1302.461c-15.16,3.79-72.011-13.266-72.011-13.266s68.221,28.426,81.486,34.11
				s-1.896,70.115,1.895,126.966c0-18.95,13.266-94.751,20.846-126.966s56.85-119.386,56.85-119.386
				S1804.643,1298.671,1789.482,1302.461z"/>
			<path style="fill:#464642;" d="M1601.876,1243.715c-17.055-11.37-11.37-54.955-11.37-54.955s-7.58,43.585-13.265,53.061
				s-58.746,28.425-58.746,28.425s49.271-17.055,64.431-17.055s73.905,11.37,73.905,11.37S1618.931,1255.085,1601.876,1243.715z"/>
			<path style="fill:#464642;" d="M1836.858,917.773c0,0-3.79,17.056-26.53,26.53c-22.74,9.475-75.801,26.53-75.801,26.53
				s83.38-13.265,108.016-9.475c24.636,3.79,51.165,7.58,62.535,24.635c11.37,17.055,17.055,60.64,11.37,102.331
				s-37.9,115.597-37.9,115.597s41.691-30.321,111.807-36.006c-28.426-5.685-60.641-7.58-60.641-15.16s-3.791-53.06,1.895-77.695
				c5.686-24.635,32.217-83.381,60.642-81.486c2.576,0.172,5.167,0.391,7.75,0.646v-4.943c-17.535-4.366-36.475-8.635-51.336-10.864
				C1910.764,972.727,1836.858,940.513,1836.858,917.773z"/>
			<path style="fill:#464642;" d="M1747.792,688.475c43.586,11.37,89.066,20.845,92.856,32.215
				c3.79,11.37,5.685,94.751,5.685,94.751s18.951-87.171,47.376-138.336C1874.759,696.055,1806.537,699.845,1747.792,688.475z"/>
			<path style="fill:#464642;" d="M1927.819,489.498c0,0,37.9,28.425,37.9,49.271c0,20.845-34.11,73.905-34.11,73.905
				s39.972-48.3,68.391-51.215v-27.702c-3.215-1.691-5.853-3.199-7.75-4.464C1969.51,514.133,1927.819,489.498,1927.819,489.498z"/>
			<path style="fill:#464642;" d="M1751.557,649.296c-1.207,3.256-1.869,5.068-1.869,5.068S1750.359,652.55,1751.557,649.296z"/>
			<path style="fill:#464642;" d="M1797.063,353.056c0,0-33.063,13.526-59.038,21.84c22.834-5.161,29.967,8.873,40.089,27.43
				c11.37,20.845,32.215,56.85,30.319,77.696c-1.689,18.582-47.045,142.565-56.876,169.273
				c10.188-27.47,59.379-158.148,80.485-178.24c7.392-7.036,21.871-2.403,48.401-0.508c-20.846-11.37-75.801-47.375-89.065-73.906
				S1797.063,353.056,1797.063,353.056z"/>
			<path style="fill:#464642;" d="M1738.024,374.897c-2.814,0.637-5.854,1.547-9.182,2.795
				C1731.746,376.862,1734.832,375.918,1738.024,374.897z"/>
			<path style="fill:#464642;" d="M1872.305,267.616c-13.283-22.991,8.654-57.076,38.313-83.439
				c-36.92,33.404-66.808,40.436-66.808,40.436c-29.888-12.307-54.501-79.114-68.565-117.792
				c-10.022-27.563-13.791-51.546-12.587-66.24c10.012-12.027,25.063-25.415,45.773-27.486c37.9-3.791,94.751-3.791,94.751-3.791
				S1866.45,5.771,1833.957,0h-144.911c20.067,15.747,34.83,33.306,44.63,45.444c22.625,43.939,51.938,126.328,60.908,145.765
				c5.082,11.012-6.569,26.512-20.008,39.62c12.76-8.198,27.335-14.494,39.347-11.491c24.612,6.153,35.766,27.112,53.479,45.211
				c1.396,3.56,8.727,23.406,3.566,35.447c-5.685,13.265-47.376,34.11-47.376,34.11s36.006-9.475,73.906-26.53
				c20.739-9.332,65.876-11.289,102.501-11.147v-3.501c-29.708-2.851-63.579-6.189-79.761-8.093
				C1897.448,282.154,1880.359,272.839,1872.305,267.616z"/>
			<path style="fill:#464642;" d="M0,1651.524c15.919,2.565,28.254,5.306,28.254,5.306s-11.858-2.965-28.254-7.063V1651.524z"/>
			<path style="fill:#464642;" d="M0,994.219c25.921,2.561,50.995,8.829,50.995,8.829S27.185,996.045,0,989.276V994.219z"/>
			<path style="fill:#464642;" d="M5.515,561.508c28.426,3.79,136.441,32.215,136.441,32.215S35.311,552.338,0,533.757v27.702
				C1.895,561.264,3.738,561.271,5.515,561.508z"/>
			<path style="fill:#464642;" d="M1643.566,320.841c9.476,17.055,9.475,68.22,7.58,104.226c0,0,26.53-34.11,45.48-37.9
				c-26.53-9.475-43.586-51.165-24.636-73.906c14.549-17.459,41.382-36.032,53.063-43.719
				c-14.865,9.359-54.827,33.146-70.118,28.559c-18.95-5.685-111.806-79.591-111.806-79.591S1634.091,303.786,1643.566,320.841z"/>
			<path style="fill:#464642;" d="M1725.055,269.542c3.557-2.24,5.683-3.656,5.683-3.656S1728.588,267.216,1725.055,269.542z"/>
			<path style="fill:#464642;" d="M1743.6,256.258c0,0,16.522-11.331,30.977-25.429C1757.454,241.83,1743.6,256.258,1743.6,256.258z
				"/>
			<path style="fill:#464642;" d="M1432.418,92.756c19.339,12.307,47.469,58.017,49.227,61.533s-42.194-86.146-52.742-109.002
				c-8.064-17.474-12.011-26.727-9.498-36.211c2.637-3.168,5.379-6.196,8.195-9.076h-3.972h-10.515h-5.171
				c-0.324,9.84-1.041,18.913-2.332,26.141c-0.181,0.913-0.362,1.842-0.545,2.784c-0.089,0.413-0.179,0.825-0.272,1.224
				c0.018-0.031,0.036-0.061,0.054-0.092c-5.022,26.094-10.595,61.582-10.595,61.582S1413.079,80.449,1432.418,92.756z"/>
		</g>
		<path style="fill:#858079;" d="M152.322,274.845c25.39-12.694,157.639-144.43,169.265-173.497
			C330.866,78.152,304.539,34.611,273.976,0h-7.785c11.886,13.524,23.2,29.38,32.14,45.842
			c24.894,45.842,3.556,71.123-14.225,85.349c-17.781,14.225-81.792,64.011-135.135,78.236
			c-30.827,8.22-100.845,6.939-148.972-1.783v65.44C66.498,280.221,137.101,282.456,152.322,274.845z"/>
		<path style="fill:#858079;" d="M130.729,0C91.5,30.846,43.305,71.843,0,111.908v18.961C41.522,91.089,100.854,36.711,146.063,0
			H130.729z"/>
		<path style="fill:#858079;" d="M368.868,55.124c-13.999,48.995,139.643,220.044,169.265,224.276
			c29.621,4.232,181.96-177.729,177.728-203.118C713.472,61.947,671.97,27.384,629.427,0h-18.362
			c53.644,33.777,89.023,83.322,78.447,99.185c-14.225,21.337-92.461,124.467-128.023,124.467
			c-35.562,0-99.573-60.456-135.135-106.686s-28.45-81.792-7.113-99.574C424.944,12.641,433.806,6.387,444.569,0h-22.711
			C396.094,14.574,375.163,33.091,368.868,55.124z"/>
		<path style="fill:#858079;" d="M325.456,618.783c13.972,1.553,118.485,0,131.18-25.39
			c37.756-75.514,55.011-219.769,55.011-241.203c0-33.853-139.644-207.35-181.96-186.191
			c-32.338,16.169-135.412,131.18-139.644,190.423C185.813,415.665,287.372,614.551,325.456,618.783z M214.557,337.281
			c3.894-53.722,89.527-152.289,120.054-165.325c31.498-13.45,160.635,146.214,160.635,176.913
			c0,19.436-6.39,133.656-41.135,202.133c-11.683,23.024-113.382,4.307-124.475-2.349
			C294.408,527.516,210.663,391.004,214.557,337.281z"/>
		<path style="fill:#949289;" d="M329.637,548.653c11.092,6.655,112.792,25.373,124.475,2.349
			c34.745-68.478,41.135-182.697,41.135-202.133c0-30.699-129.138-190.362-160.635-176.913
			c-30.527,13.036-116.161,111.603-120.054,165.325C210.663,391.004,294.408,527.516,329.637,548.653z M235.97,302.553
			c4.697-35.229,94.052-126.223,108.035-124.475c37.578,4.697,143.263,155.006,140.914,176.143
			c-2.349,21.137-39.925,133.87-108.035,126.823C308.775,473.999,231.272,337.782,235.97,302.553z"/>
		<path style="fill:#858079;" d="M751.754,162.191c-24.611-23.627-177.728,152.338-190.423,186.191
			c-12.695,33.853-55.011,203.118-42.316,236.971c7.433,19.819,110.022,55.011,143.875,55.011
			c21.158,0,110.022-33.853,126.949-55.011C809.971,560.188,857.544,263.75,751.754,162.191z M803.31,312.556
			c17.781,96.017-3.556,195.59-17.781,227.596c-14.225,32.006-81.793,64.011-106.685,60.455
			c-24.893-3.556-131.579-53.343-131.579-88.904s10.669-149.36,39.118-188.478c61.09-83.997,137.843-145.662,160.028-149.36
			C767.748,170.309,785.529,216.539,803.31,312.556z"/>
		<path style="fill:#858079;" d="M207.762,512.005c-38.434-65.082-91.783-157.209-110.022-177.728
			c-12.267-13.8-51.76-18.708-97.74-17.548v8.135c37.457-1.223,67.029,2.419,79.959,9.413
			c27.004,14.607,65.456,92.078,90.35,131.196c24.893,39.118,81.792,110.242,53.343,103.129
			C205.861,564.154,90.732,512.428,0,469.073v41.44c100.972,46.458,205.477,86.124,224.689,86.124
			C271.237,596.638,240.663,567.716,207.762,512.005z"/>
		<path style="fill:#858079;" d="M112.451,963.844c46.548-21.158,191.955-259.196,165.033-296.214
			c-33.853-46.548-257.415-86.408-277.442-84.633C0.028,582.998,0.014,583,0,583.002v10.572
			c93.333-1.881,248.722,53.575,262.77,78.158c14.225,24.894-3.556,46.231-28.45,103.129
			c-24.893,56.899-99.573,167.141-138.691,167.141c-16.924,0-56.48-28.625-95.629-63.983v82.944
			C46.688,970.155,91.919,973.176,112.451,963.844z"/>
		<path style="fill:#858079;" d="M663.247,1248.169c50.681-23.282,224.68-240.221,219.14-285.73
			c-2.454-20.165-19.279-77.592-70.594-114.311c-39.198-28.048-245.873,78.437-317.811,129.216
			c-54.677,38.597-18.708,60.173,29.621,122.718C595.54,1193.159,643.752,1257.125,663.247,1248.169z M547.265,959.783
			c28.449-21.337,188.478-113.798,245.377-106.686c56.899,7.112,81.792,88.905,74.68,120.911
			c-7.113,32.006-131.579,192.034-163.585,202.703c-32.006,10.669-81.792-32.005-106.685-49.786
			C572.158,1109.143,525.045,976.447,547.265,959.783z"/>
		<path style="fill:#858079;" d="M417.71,647.765c-50.78,4.232-93.096,59.243-105.791,101.559
			C301.81,783.02,331.063,866.536,392.32,948.21c38.084,50.779,307.723-138.779,304.084-164.601
			c-5.935-42.119-32.538-71.648-45.955-85.064C626.843,674.94,468.489,643.534,417.71,647.765z M636.169,703.737
			c42.674,21.337,49.787,60.456,46.231,78.236c-3.556,17.781-49.787,56.899-92.461,81.792
			c-42.674,24.893-96.017,42.675-135.135,10.669c-39.118-32.006-120.911-160.029-96.017-184.921
			c10.668-10.668,28.45-24.894,58.923-27.523C480.71,656.555,593.495,682.4,636.169,703.737z"/>
		<path style="fill:#858079;" d="M274.016,844.263c-29.622,4.231-142.34,154.999-139.643,181.96
			c4.231,42.316,38.084,122.718,63.475,143.876c25.39,21.157,169.265-118.486,173.497-152.339
			C375.574,983.907,303.637,840.032,274.016,844.263z M358.787,1023.794c-17.781,28.45-135.135,120.91-149.36,99.573
			c-14.225-21.337-53.343-117.354-39.118-145.804c18.546-37.093,89.268-137.196,110.819-122.631
			C310.155,874.548,376.567,995.344,358.787,1023.794z"/>
		<path style="fill:#858079;" d="M592.3,1406.558c30.778-1.23,44.704-67.921,42.316-84.632
			c-4.232-29.622-161.493-216.256-190.424-241.203c-28.93-24.947-180.693,87.257-194.654,135.412
			c-14.466,49.895,17.715,163.578,51.468,200.999C323.391,1441.953,486.509,1410.79,592.3,1406.558z M329.742,1139.256
			c27.65-23.041,82.949-52.227,104.455-50.691c15.322,1.095,82.95,81.413,118.28,127.496c35.33,46.083,47.619,89.093,46.083,101.382
			c-1.536,12.289-26.113,53.764-55.299,61.444c-29.187,7.681-171.825-8.771-205.619-21.061s-59.323-120.34-65.467-141.845
			C266.031,1194.478,302.092,1162.297,329.742,1139.256z"/>
		<path style="fill:#858079;" d="M127.638,1135.422c7.117-9.488-18.935-99.891-38.085-114.254
			c-13.892-10.419-64.614-17.641-89.553-17.84v8.436c17.415-3.071,73.022,6.439,87.04,15.36
			c16.897,10.753,30.722,61.444,30.722,75.269c0,13.824-32.258,26.114-64.516,29.187c-14.272,1.359-34.858,0.611-53.245-2.638
			v20.082C50.669,1150.774,118.812,1147.19,127.638,1135.422z"/>
		<path style="fill:#858079;" d="M118.974,1638.877c42.316-12.695,112.785-135.973,131.18-181.96
			c8.463-21.158-50.779-224.276-93.096-253.896c-23.666-16.566-94.505-21.346-157.058-16.35v11.988
			c41.662-3.85,96.288-4.04,146.947,8.189c25.429,6.138,58.372,98.309,72.197,156.682c13.825,58.372,12.288,73.734,7.68,82.95
			c-4.608,9.216-72.197,121.351-105.991,141.32c-18.711,11.057-72.135-9.807-120.833-36.548v74.517
			C53.518,1638.144,101.967,1643.979,118.974,1638.877z"/>
		<path style="fill:#858079;" d="M822.492,165.048c42.316,8.463,221.042-71.693,232.739-118.485
			c2.932-11.728,6.14-27.841,9.196-46.563h-23.594c-5.114,21.712-9.699,37.237-12.173,40.947
			c-9.217,13.825-107.527,79.877-145.929,81.413c-38.402,1.536-104.455-52.228-115.208-69.124
			c-5.409-8.5-10.428-29.44-11.735-53.236h-38.328C724.735,35.025,782.881,157.126,822.492,165.048z"/>
		<path style="fill:#858079;" d="M864.193,388.009c25.39,16.927,190.423-63.475,211.582-84.633
			c21.157-21.158,25.977-163.224-4.232-169.265c-42.315-8.463-198.886,42.316-211.581,71.937
			C843.292,244.943,838.803,371.082,864.193,388.009z M876.587,220.671c7.68-15.361,36.867-41.475,67.589-53.763
			c30.722-12.289,108.785-29.549,125.96-26.114c15.361,3.072,16.897,89.094,10.753,105.991
			c-6.145,16.897-38.402,52.228-69.125,66.052c-30.723,13.825-125.959,52.227-136.712,36.867
			C864.298,334.343,868.907,236.032,876.587,220.671z"/>
		<path style="fill:#858079;" d="M888.308,429.045c-27.499,18.332-50.779,114.253-50.779,139.643
			c0,25.39,50.779,148.107,93.096,169.266c37.849,18.924,131.004,59.419,156.57,33.852c25.39-25.39,148.107-279.287,131.181-317.371
			c-16.927-38.085-118.485-80.401-148.107-84.632C1034.477,364.69,926.393,403.655,888.308,429.045z M1194.56,435.724
			c13.825,16.897,3.072,67.588-9.217,107.527c-12.289,39.939-66.052,167.435-82.949,168.971
			c-16.897,1.536-109.715-0.847-137.365-25.425s-86.021-122.887-82.949-153.609c3.072-30.722,5.261-88.246,28.302-105.144
			c23.042-16.897,127.497-53.763,156.682-52.227C1096.249,377.352,1180.734,418.827,1194.56,435.724z"/>
		<path style="fill:#858079;" d="M867.81,758.416c5.008-10.017-25.39-93.095-46.548-105.791
			c-21.158-12.695-76.169,8.463-105.79,21.158c-24.905,10.674,16.926,122.717,33.852,135.412
			C766.251,821.891,859.347,775.343,867.81,758.416z M858.158,752.16c-10.753,9.216-82.949,44.547-101.382,33.794
			s-47.619-98.31-33.794-109.063c13.556-10.544,71.796-24.016,90.63-21.505C836.652,658.458,868.911,742.943,858.158,752.16z"/>
		<path style="fill:#858079;" d="M966.725,960.215c21.158,16.927,131.181-38.085,131.181-76.169
			c0-30.806-118.485-101.559-169.265-101.559c-33.853,0-55.011,29.621-46.548,55.011
			C890.555,862.888,932.226,932.617,966.725,960.215z M893.053,813.944c0-12.361,24.203-20.886,40.532-24.04
			c16.128-3.116,89.659,29.305,132.521,63.595c24.722,19.777-9.888,61.805-27.193,71.693c-17.306,9.889-71.694-2.473-88.999-14.833
			C932.608,897.998,893.053,826.305,893.053,813.944z"/>
		<path style="fill:#858079;" d="M1254.861,547.231c-29.622,0-135.412,240.161-135.412,275.056
			c0,29.622,93.097,114.254,122.717,105.791c29.621-8.463,143.876-207.35,139.645-241.203
			C1377.579,653.021,1284.483,547.231,1254.861,547.231z M1331.276,779.81c-10.752,24.578-76.806,121.352-101.383,116.744
			s-86.021-56.836-87.558-75.269s6.145-69.124,21.506-102.918c15.361-33.794,68.264-164.362,90.629-164.362
			c33.794,0,112.136,102.918,113.672,115.207C1369.679,681.499,1342.028,755.232,1331.276,779.81z"/>
		<path style="fill:#858079;" d="M843.016,1210.181c12.695,33.853,245.435,131.18,304.677,114.253
			c59.242-16.927,131.181-198.886,118.485-241.203c-12.695-42.316-84.632-139.643-114.253-143.874
			c-29.622-4.232-219.69,80.946-245.435,97.328C859.942,1066.305,830.32,1176.327,843.016,1210.181z M991.94,1004.302
			c19.777-7.417,128.555-59.332,165.637-56.86c30.109,2.007,76.637,93.944,88.998,123.61
			c12.361,29.666-40.34,165.035-66.749,200.247c-14.833,19.777-131.025,2.472-168.108-7.417
			c-18.913-5.043-89.52-38.125-111.249-81.582c-12.361-24.722-17.305-76.638-7.417-101.359
			C903.521,1054.77,972.163,1011.719,991.94,1004.302z"/>
		<path style="fill:#858079;" d="M856.667,1588.438c25.39-16.926,135.412-207.35,114.254-245.434
			c-21.158-38.085-152.338-88.864-186.191-93.097c-33.853-4.232-99.991,80.432-118.486,110.023
			C645.085,1393.784,831.277,1605.365,856.667,1588.438z M690.269,1356.068c-2.396-15.976,40.831-67.267,71.902-88.992
			c7.061-6.522,13.636-10.476,18.291-9.4c22.348-5.259,126.271,40.996,155.789,59.035c29.518,18.039,21.319,59.036,19.679,78.715
			c-1.64,19.679-68.875,111.512-90.193,119.711C844.418,1523.336,695.189,1388.866,690.269,1356.068z"/>
		<path style="fill:#858079;" d="M1122.779,323.832c8.464,33.853,80.402,67.706,122.718,59.243
			c42.315-8.463,114.253-207.35,97.327-232.739c-16.927-25.39-156.57-55.01-190.424-29.621
			C1125.106,141.184,1114.315,289.978,1122.779,323.832z M1156.157,139.258c6.145-15.361,18.397-22.354,44.547-23.041
			c58.372-1.536,121.352,23.041,130.568,35.33c17.896,23.86-16.897,105.991-24.577,122.889
			c-7.68,16.897-49.155,81.413-69.125,75.268c-19.97-6.145-90.63-53.763-95.238-78.341S1150.013,154.619,1156.157,139.258z"/>
		<path style="fill:#858079;" d="M1246.229,78.585c29.341,5.869,88.864,12.695,118.485,0c12.8-5.486,20.064-39.424,22.485-78.585
			h-8.308c-9.217,17.425-46.083,47.091-75.269,44.019C1287.296,42.3,1247.414,21.352,1213.558,0h-60.915
			C1188.321,37.788,1233.671,76.073,1246.229,78.585z"/>
		<path style="fill:#858079;" d="M1282.069,441.728c-10.109,47.177,80.4,152.338,122.717,173.497
			c42.317,21.158,131.182-8.463,169.266-25.39c38.084-16.926,71.938-211.58,50.779-253.897s-143.876-148.107-173.496-148.107
			C1421.714,187.831,1294.765,382.486,1282.069,441.728z M1452.624,196.092c44.547,10.752,159.754,129.032,168.971,153.61
			c9.217,24.578-12.289,165.898-24.577,178.188c-12.288,12.289-114.877,47.254-140.991,33.429s-116.743-99.847-118.279-129.032
			c-1.536-29.186-12.619-59.542,16.566-108.698S1430.426,190.734,1452.624,196.092z"/>
		<path style="fill:#858079;" d="M1501.201,161.065c21.159,21.158,111.081,103.939,152.339,114.254
			c16.927,4.232,118.485-55.012,114.254-84.633c-3.945-27.62-44.688-147.209-101.635-190.686h-13.991
			c3.163,1.359,5.804,2.73,7.83,4.081c50.691,33.794,92.166,149.001,92.166,159.754c0,10.752-50.955,48.33-72.46,48.33
			s-129.032-62.98-145.929-73.732c-16.896-10.752-64.254-105.165-67.326-120.526c-1.324-6.622-1.217-12.671,3.512-17.905H1451.9
			c-0.594,0.92-1.091,1.857-1.478,2.811C1432.075,48.056,1487.819,147.685,1501.201,161.065z"/>
		<path style="fill:#858079;" d="M1385.558,183.23c8.464,12.695,55.012-29.621,59.244-46.547
			c4.23-16.926-29.622-38.085-46.549-33.853C1375.03,108.636,1367.224,155.731,1385.558,183.23z M1403.469,105.462
			c10.753,0,30.722,12.289,30.722,21.505s-27.649,41.475-36.866,44.547c-9.217,3.072-15.36-18.055-15.36-30.722
			C1381.964,125.432,1389.307,105.462,1403.469,105.462z"/>
		<path style="fill:#858079;" d="M74.26,1991.02c50.779-42.316,106.177-141.516,88.864-171.813
			c-9.15-16.013-88.122-33.683-163.124-40.296v8.132c4.131,0.234,8.333,0.518,12.601,0.852c37.093,2.905,79.367,8.869,127.25,24.83
			c46.555,15.519-31.037,133.457-65.177,145.872c-13.055,4.747-41.998,4.953-74.674,2.533v37.826
			C35.59,2000.884,64.518,1999.138,74.26,1991.02z"/>
		<path style="fill:#858079;" d="M1708.868,659.35c23.18,0,84.028-167.835,81.131-184.619
			c-5.146-29.806-28.975-90.631-49.259-90.631c-20.282,0-60.849,26.854-78.233,46.994c-20.283,23.498-34.771,181.262-26.077,208.115
			C1645.122,666.063,1685.688,659.35,1708.868,659.35z M1646.175,566.294c3.072-24.578,16.896-121.352,26.113-133.64
			s47.671-43.62,69.124-41.475c15.36,1.536,30.723,47.619,36.867,72.197s-4.608,52.227-12.289,72.197
			c-7.681,19.969-62.98,92.166-76.805,89.094C1675.361,621.593,1643.103,590.871,1646.175,566.294z"/>
		<path style="fill:#858079;" d="M750.752,1567.103c-12.695-25.391-84.632-105.791-122.717-114.254
			c-38.084-8.463-241.203,16.927-296.214,16.927c-55.011,0-129.244,160.085-126.949,169.266
			c8.463,33.853,279.288,80.399,321.604,80.399C568.793,1719.44,763.447,1592.492,750.752,1567.103z M539.497,1679.704
			c-49.1,21.822-136.389-21.822-174.578-27.278c-19.094-2.729-92.744-31.123-92.744-65.466c0-10.911,24.55-73.649,43.645-81.833
			c39.164-16.785,250.955-49.101,294.599-43.645s109.11,76.378,120.021,103.655C741.351,1592.415,588.597,1657.882,539.497,1679.704
			z"/>
		<path style="fill:#858079;" d="M200.934,1755.258c13.449-5.764,12.537-54.748-16.927-67.706
			c-17.855-7.853-118.713-20.979-184.007-26.827v8.107c58.177,4.827,160.199,17.218,177.095,22.85
			c9.311,3.104,31.037,43.451,18.622,43.451c-8.374,0-121.225,1.411-195.716-3.383v23.308
			C74.121,1760.71,180.561,1763.988,200.934,1755.258z"/>
		<path style="fill:#858079;" d="M1781.533,46.352c-13.971,41.912,46.286,170.201,67.706,156.57
			c46.548-29.621,158.999-139.735,131.18-160.802C1965.88,31.108,1794.229,8.267,1781.533,46.352z M1890.413,31.73
			c39.938,3.072,73.558,8.186,81.413,19.969c9.217,13.825-50.691,67.588-66.053,78.341c-15.361,10.753-56.835,46.083-69.124,27.65
			s-50.691-107.527-43.011-113.671C1801.319,37.875,1850.475,28.658,1890.413,31.73z"/>
		<path style="fill:#858079;" d="M337.218,17.458c3.588,2.392,13.938-5.023,27.033-17.458h-45.052
			C327.955,9.227,334.513,15.654,337.218,17.458z"/>
		<path style="fill:#858079;" d="M673.241,1706.65c-33.853,12.694-186.191,63.474-198.886,97.327
			c-12.695,33.853,44.973,90.457,63.474,101.559c21.159,12.695,105.791,63.475,135.412,63.475
			c29.621,0,84.633-118.485,93.096-139.644C782.053,1790.078,707.094,1693.956,673.241,1706.65z M682.992,1927.56
			c-21.726,15.519-127.251-43.452-145.873-55.866c-18.622-12.414-31.036-80.694-9.31-93.109s124.146-62.073,155.183-62.073
			c21.726,0,71.384,62.073,74.488,86.902S704.718,1912.041,682.992,1927.56z"/>
		<path style="fill:#858079;" d="M388.565,1736.648c-9.155,12.206,25.389,55.011,38.085,55.011c12.695,0,38.084-25.39,42.316-42.316
			C473.197,1732.416,401.26,1719.722,388.565,1736.648z M427.008,1733.704c12.359,1.177,32.038,4.458,35.317,11.017
			c5.339,10.678-22.958,31.156-32.797,34.437c-9.839,3.28-29.518-27.878-31.158-36.077
			C396.73,1734.881,409.244,1732.013,427.008,1733.704z"/>
		<path style="fill:#858079;" d="M925.31,1685.531c23.619-18.371-88.864-63.474-122.717-71.938
			c-33.853-8.464-59.243,55.011-55.011,93.095C751.813,1744.773,887.225,1715.152,925.31,1685.531z M767.344,1649.607
			c4.919-16.399,13.12-27.879,26.238-29.519c15.002-1.875,96.753,32.799,113.152,42.638c16.398,9.839-16.399,27.878-47.557,34.438
			c-31.158,6.56-80.354-0.001-88.554-1.641S762.424,1666.007,767.344,1649.607z"/>
		<path style="fill:#858079;" d="M1686.923,309.576c-16.926,25.389,0,59.243,16.927,59.243s135.411-55.011,148.106-71.938
			c12.695-16.926-25.389-63.475-46.547-63.475S1695.387,296.88,1686.923,309.576z M1712.227,294.404
			c19.969-18.433,72.273-49.847,93.702-52.227c27.649-3.072,50.691,49.155,38.402,53.764s-127.496,46.083-135.177,38.402
			C1701.474,326.662,1692.258,312.837,1712.227,294.404z"/>
		<path style="fill:#858079;" d="M1847.729,484.26c-21.618,7.206-80.401,152.339-84.633,177.728s114.255,4.231,114.255,4.231
			s63.474-101.56,63.474-126.949C1940.824,513.882,1873.118,475.797,1847.729,484.26z M1864.301,492.561
			c16.347,4.541,55.299,21.505,64.516,33.794c9.217,12.289-16.896,62.979-29.186,82.949s-89.095,32.258-110.6,32.258
			S1836.651,484.88,1864.301,492.561z"/>
		<path style="fill:#858079;" d="M1653.971,708.59c-35.651,15.845-88.864,224.276-80.401,249.666
			c8.464,25.39,224.276-29.622,236.972-38.085c12.695-8.463,25.39-148.106,12.695-177.728
			C1810.541,712.821,1692.056,691.663,1653.971,708.59z M1807.467,868.903c-9.217,24.577-93.703,58.372-113.672,62.98
			s-99.846,3.072-99.846-16.897c0-19.969,23.041-156.682,59.907-195.084c12.13-12.635,64.515-9.217,96.773-3.072
			c32.259,6.145,58.374,19.97,64.518,30.722C1821.291,758.304,1816.684,844.326,1807.467,868.903z"/>
		<path style="fill:#858079;" d="M1511.372,914.035c29.621-8.463,84.634-181.96,76.17-203.118
			c-8.464-21.158-93.097-63.475-118.485-42.316c-10.458,8.714-78.408,100.315-101.56,143.876c-21.552,40.552-7.465,81.649,0,101.559
			C1377.897,941.771,1481.752,922.498,1511.372,914.035z M1480.277,672.283c13.85-10.156,59.907,10.753,78.341,19.969
			c18.434,9.217,19.97,43.011,21.506,53.764c1.536,10.753-49.156,119.816-62.98,135.177
			c-13.824,15.361-105.991,26.113-122.888,29.186c-16.896,3.072-19.969-50.691-19.969-67.588
			C1374.287,825.893,1434.194,706.077,1480.277,672.283z"/>
		<path style="fill:#858079;" d="M1560.7,1217.778c16.927-33.854,16.927-194.655,0-220.045
			c-16.926-25.389-118.484-29.621-152.338-25.39c-33.853,4.232-76.169,50.778-93.096,76.169
			c-17.088,25.633,67.706,194.655,84.633,207.351C1416.825,1268.559,1543.774,1251.631,1560.7,1217.778z M1525.933,1216.91
			c-16.913,5.636-101.358,0.001-126.081-12.36s-66.749-131.027-69.222-148.332c-2.473-17.305,46.973-66.748,69.222-74.165
			c1.878-0.834,4.375-1.457,7.36-1.894c37.175-7.356,115.741,4.697,138.655,20.048c24.564,16.457,14.676,110.4,14.676,135.122
			S1533.35,1214.438,1525.933,1216.91z"/>
		<path style="fill:#858079;" d="M1299.625,1012.017c21.158,0,46.547-42.316,46.547-59.243c0-16.926-93.095-8.463-93.095,16.927
			C1253.077,995.44,1278.467,1012.017,1299.625,1012.017z M1256.464,972.164c-1.99-9.953,32.884-21.505,63.325-20.467
			c12.844-2.757,22.79-3.013,20.729,3.162c10.567,3.252-17.305,34.611-29.666,44.5
			C1298.491,1009.246,1258.936,984.524,1256.464,972.164z"/>
		<path style="fill:#858079;" d="M946.048,1617.843c25.39,25.39,275.055,33.853,279.287,0
			c4.232-33.854-33.853-224.277-55.011-245.436c-21.158-21.157-131.181-12.695-148.107,0
			C997.806,1390.716,920.658,1592.452,946.048,1617.843z M990.368,1469.22c1.64-16.398,29.518-81.994,44.277-90.193
			c12.332-6.851,80.355-14.758,100.033-11.478c19.678,3.279,29.518,4.919,37.717,24.598s36.969,136.404,32.796,165.627
			c-3.278,22.96-40.995,47.558-62.313,54.117s-129.553-9.839-152.509-24.598C967.41,1572.533,988.727,1485.618,990.368,1469.22z"/>
		<path style="fill:#858079;" d="M1497.278,1552.391c21.159-21.157-71.938-131.18-88.863-152.339
			c-16.927-21.158-173.497-71.938-186.192-46.548c-12.695,25.391,12.695,173.497,33.854,203.118
			C1277.233,1586.244,1476.12,1573.549,1497.278,1552.391z M1241.631,1352.881c3.229-12.916,128.554,29.667,150.804,42.027
			c22.25,12.36,81.583,103.831,88.999,121.137s-108.777,32.139-126.082,32.139s-91.471-59.333-101.359-74.166
			C1245.996,1462.023,1239.158,1362.77,1241.631,1352.881z"/>
		<path style="fill:#858079;" d="M1398.036,1343.628c0-29.922-70.616-168.779-93.095-165.033
			c-25.391,4.231-67.706,105.791-59.243,118.485C1254.16,1309.774,1398.036,1360.555,1398.036,1343.628z M1330.63,1318.271
			c-27.194-2.473-64.277-37.084-69.222-49.444s32.139-74.164,42.027-79.109c17.688-8.846,61.805,84.054,71.693,101.359
			C1380.186,1299.926,1357.824,1320.743,1330.63,1318.271z"/>
		<path style="fill:#858079;" d="M1110.503,1667.432c-24.235,12.117-0.001,114.253,25.39,126.948
			c25.39,12.695,80.401-76.17,76.17-101.56C1207.831,1667.432,1127.43,1658.969,1110.503,1667.432z M1172.41,1758.319
			c-12.361,14.833-42.027-14.833-51.916-24.722s-12.36-51.916-9.889-56.86c7.078-14.158,56.38-11.166,91.471,9.889
			C1214.438,1694.043,1184.771,1743.486,1172.41,1758.319z"/>
		<path style="fill:#858079;" d="M1497.419,1611.854c-29.621,4.231-198.888,4.231-211.582,21.157
			c-14.804,19.74,12.695,76.169,33.854,93.096s258.129,114.254,287.751,97.328
			C1637.063,1806.508,1527.041,1607.622,1497.419,1611.854z M1558.071,1698.987c7.417,17.306,46.972,88.998,29.666,91.471
			s-229.913-64.277-244.746-76.638s-47.095-74.949-27.194-81.582c22.25-7.416,135.97-12.361,173.053-12.361
			S1550.654,1681.682,1558.071,1698.987z"/>
		<path style="fill:#858079;" d="M1566.446,1881.661c-12.695-16.927-177.729-110.022-186.191-88.864
			c-7.858,19.644,42.316,148.106,67.705,152.339C1473.35,1949.368,1579.142,1898.587,1566.446,1881.661z M1496.267,1916.539
			c-14.833,0-46.972-17.305-64.277-37.082s-47.521-84.38-32.138-81.583c27.194,4.944,153.275,79.11,158.22,86.527
			S1511.1,1916.539,1496.267,1916.539z"/>
		<path style="fill:#858079;" d="M1463.46,1300.164c-16.927,8.464-16.926,71.938-8.463,101.56
			c8.463,29.621,84.633,122.718,118.485,143.876c33.854,21.157,173.497-16.928,190.423-25.391
			c16.927-8.463,16.928-165.033,12.695-186.191c-2.352-11.758-157.072-67.219-181.96-67.706
			C1564.291,1265.718,1489.071,1287.358,1463.46,1300.164z M1765.735,1471.546c-2.473,22.25-133.499,56.859-163.165,54.388
			s-118.665-118.665-123.609-138.442s-11.224-78.238,1.805-84.854s88.64-26.479,113.875-26.437
			c27.707,0.047,151.318,47.013,163.679,56.902S1768.208,1449.296,1765.735,1471.546z"/>
		<path style="fill:#858079;" d="M1609.788,1214.134c16.927,29.62,135.413,63.474,160.803,59.242
			c25.389-4.231,93.096-84.632,101.559-105.791c8.463-21.158,42.316-152.339,8.463-177.728
			c-33.854-25.39-245.434,8.463-262.36,25.389C1600.804,1032.694,1592.861,1184.513,1609.788,1214.134z M1872.039,994.414
			c17.899,1.884,8.555,116.516-2.473,153.276c-7.416,24.722-79.109,79.11-101.359,86.526s-138.611-59.567-150.804-76.638
			c-12.36-17.306,0-116.193,12.361-131.026C1642.126,1011.719,1778.096,984.525,1872.039,994.414z"/>
		<path style="fill:#858079;" d="M1579.024,1649.037c4.231,16.927,55.01,139.644,80.4,160.802
			c25.39,21.158,169.264-50.78,190.423-63.475s29.621-84.633,12.695-105.791c-16.927-21.157-207.35-63.475-241.203-50.779
			C1597.239,1598.832,1574.793,1632.11,1579.024,1649.037z M1780.567,1614.933c14.834,4.944,77.423,26.56,84.447,47.891
			s-10.281,63.357-20.17,70.774s-126.081,32.138-148.331,29.666s-88.998-101.359-101.359-116.192s19.776-46.973,32.138-49.444
			C1642.625,1594.562,1765.733,1609.988,1780.567,1614.933z"/>
		<path style="fill:#858079;" d="M1649.067,1858.036c-37.512,10.718-46.547,46.548-38.084,63.475
			c8.463,16.926,114.254,50.779,135.412,50.779c21.157,0,25.388-122.717,12.693-135.412
			C1746.396,1824.183,1678.689,1849.572,1649.067,1858.036z M1750.901,1938.789c-9.889,2.472-79.109,7.417-88.998-4.944
			s-40.701-53.55-27.194-61.805c44.499-27.194,106.304-32.139,116.192-22.25S1760.79,1936.317,1750.901,1938.789z"/>
		<path style="fill:#858079;" d="M1079.245,98.199c4.231,21.158,80.401-8.463,88.864-25.39c6.65-13.303-33.737-60.572-55.446-72.81
			h-12.689C1088.979,20.611,1075.068,77.313,1079.245,98.199z M1087.033,68.597c3.072-15.361,9.008-64.71,24.577-62.98
			c13.825,1.536,41.475,35.33,46.083,43.011c4.608,7.681-16.897,32.258-32.259,35.331
			C1110.073,87.031,1083.961,83.958,1087.033,68.597z"/>
		<path style="fill:#858079;" d="M207.333,1949.01c-7.915,0-37.894,20.553-76.604,50.99h15.335
			c29.158-23.677,52.439-40.006,61.27-40.321c14.612-0.522,37.646,16.187,58.858,40.321h7.785
			C248.785,1971.473,220.716,1949.01,207.333,1949.01z"/>
		<path style="fill:#858079;" d="M1889.962,253.688c23.021,7.674,65.613,14.628,110.038,19.397v-65.44
			c-35.153-6.371-58.628-16.713-46.619-30.223c7.022-7.9,24.233-25.105,46.619-46.552v-18.961
			C1926.129,180.252,1866.503,245.868,1889.962,253.688z"/>
		<path style="fill:#858079;" d="M1809.989,363.898c-15.791,47.375,52.333,78.719,122.717,114.253
			c21.552,10.881,44.332,21.796,67.294,32.361v-41.44c-54.365-25.978-99.971-48.949-110.631-56.944
			c-28.449-21.337-54.334-56.046-28.449-64.011c48.19-14.828,98.307-21.924,139.08-23.255v-8.135
			C1919.087,318.772,1818.084,339.614,1809.989,363.898z"/>
		<path style="fill:#858079;" d="M1862.785,908.833c16.556,18.921,78.055,40.482,137.215,52.13v-82.944
			c-51.339-46.368-101.979-104.319-99.961-124.495c3.556-35.562,52.111-158.242,96.447-159.858c1.158-0.043,2.335-0.068,3.514-0.092
			v-10.572C1904.539,591.544,1833.168,874.984,1862.785,908.833z"/>
		<path style="fill:#858079;" d="M1987.993,1004.241c-35.001,10-67.706,131.18-38.084,139.644c9.026,2.579,27.883,4.37,50.091,5.139
			v-20.082c-23.171-4.096-42.85-12.166-41.992-25.013c1.535-23.042,24.577-89.094,41.992-92.165v-8.436
			C1994.552,1003.285,1990.327,1003.574,1987.993,1004.241z"/>
		<path style="fill:#858079;" d="M1894.698,1215.714c-46.549,59.244-105.792,270.824-80.401,325.836
			c15.186,32.902,106.059,65.803,185.703,84.219v-74.517c-39.256-21.556-75.441-46.93-87.891-62.492
			c-18.434-23.042-41.102-158.686-27.277-190.943s28.629-80.216,50.134-87.896c9.277-3.313,33.426-8.34,65.034-11.261v-11.988
			C1950.708,1190.608,1906.561,1200.616,1894.698,1215.714z"/>
		<path style="fill:#858079;" d="M1862.679,1793.816c-29.621,42.316-84.632,152.34-59.243,169.266
			c17.213,11.476,121.65,31.815,196.564,35.873v-37.825c-52.774-3.909-115.29-14.675-136.375-24.259
			c-34.141-15.519-6.208-121.044,15.518-136.562c13.181-9.413,59.113-16.77,120.857-13.267v-8.132
			C1936.261,1773.292,1875.39,1775.657,1862.679,1793.816z"/>
		<path style="fill:#858079;" d="M1947.036,1657.931c-38.188,3.183-46.549,80.4-16.926,88.863c9.249,2.643,36.238,5.698,69.89,8.264
			v-23.308c-35.951-2.314-62.971-6.073-64.991-12.135c-6.208-18.621-3.104-52.764,31.036-52.764c6.974,0,19.021,0.741,33.955,1.98
			v-8.107C1974.723,1658.46,1954.773,1657.285,1947.036,1657.931z"/>
		<path style="fill:#858079;" d="M421.857,2000h22.711c29.509-17.51,73.321-36.018,105.584-27.304
			c21.723,5.867,42.402,15.649,60.912,27.304h18.362c-32.813-21.121-66.246-37.973-82.83-37.973
			C522.675,1962.027,465.37,1975.387,421.857,2000z"/>
		<path style="fill:#858079;" d="M1050.999,1746.118c-42.316-16.927-126.948-16.927-165.033,0
			c-38.085,16.926-169.265,224.275-169.265,247.981c0,1.516,0.263,3.508,0.76,5.9h38.328c-1.292-23.509,1.039-49.805,10.199-69.652
			c18.433-39.938,117.778-176.559,133.641-181.259c41.475-12.288,87.558-10.753,115.207-4.608
			c27.649,6.145,38.402,19.969,47.62,53.764c10.197,37.386-7.681,142.571-21.622,201.756h23.594
			C1079.013,1910.632,1090.115,1761.765,1050.999,1746.118z"/>
		<path style="fill:#858079;" d="M1373.177,1871.234c-21.158-29.621-88.864-131.181-135.412-131.181
			c-40.144,0-135.413,160.803-131.181,194.655c1.721,13.762,21.621,39.409,46.059,65.291h60.915
			c-26.663-16.815-49.591-33.881-54.328-42.002c-10.753-18.434-19.969-78.342-7.68-105.991s69.474-106.425,92.166-101.383
			c27.65,6.144,118.279,109.063,127.496,127.496s16.896,104.455,7.68,121.88h8.308
			C1390.38,1948.539,1385.191,1888.056,1373.177,1871.234z"/>
		<path style="fill:#858079;" d="M1451.9,2000h18.062c6.241-6.907,20.537-12.393,50.251-15.889
			c46.486-5.469,106.356,4.882,131.957,15.889h13.988c-4.124-3.149-8.331-5.913-12.618-8.199
			C1592.001,1958.98,1470.801,1970.725,1451.9,2000z"/>
		<path style="fill:#858079;" d="M451.473,1886.277c4.231-25.39-139.644-169.266-169.266-152.339
			c-23.237,13.278-80.4,114.253-67.706,139.644c9.989,19.979,72.372,92.35,104.698,126.418h45.053
			C397.493,1968.434,448.436,1904.49,451.473,1886.277z M232.96,1856.176c-12.414-21.726,34.141-96.214,55.866-111.732
			c20.204-14.432,93.661,56.212,130.353,108.629c21.726,31.036-34.141,111.731-68.281,117.938
			C316.759,1977.218,245.375,1877.901,232.96,1856.176z"/>
		<path style="fill:#858079;" d="M1100.403,1999.188c-0.142,0.256-0.287,0.544-0.43,0.813h12.688
			C1106.748,1996.666,1102.215,1995.924,1100.403,1999.188z"/>
		<path style="fill:#949289;" d="M170.309,465.473c-24.893-39.118-63.345-116.589-90.35-131.196
			c-12.93-6.994-42.502-10.636-79.959-9.413v9.496c28.083-0.251,58.014,2.085,72.286,9.869
			c13.727,7.487,88.999,123.61,101.36,143.387C184.71,505.318,51.183,453.695,0,424.94v44.133
			c90.732,43.354,205.861,95.081,223.651,99.529C252.101,575.714,195.202,504.591,170.309,465.473z"/>
		<path style="fill:#949289;" d="M157.4,0h-11.337C100.854,36.711,41.522,91.089,0,130.869V151.4C0,138.528,91.966,49.065,157.4,0z"
			/>
		<path style="fill:#949289;" d="M148.972,209.427c53.343-14.225,117.354-64.011,135.135-78.236
			c17.781-14.225,39.119-39.506,14.225-85.349C289.392,29.38,278.078,13.524,266.191,0h-6.773
			c13.278,14.414,24.99,30.376,30.421,40.152c12.361,22.25-56.861,96.415-98.888,113.721C148.925,171.178,0,168.705,0,151.4v56.244
			C48.127,216.366,118.145,217.647,148.972,209.427z"/>
		<path style="fill:#949289;" d="M234.32,774.861c24.894-56.899,42.674-78.236,28.45-103.129
			C248.722,647.148,93.333,591.693,0,593.574v10.236c22.806-20.495,226.892,33.908,255.23,71.692
			c14.833,19.777-46.972,121.137-66.749,153.275c-19.777,32.139-109.37-12.361-148.331-39.555
			C24.312,778.168,9.715,749.953,0,718.531v159.488c39.149,35.358,78.705,63.983,95.629,63.983
			C134.747,942.002,209.426,831.76,234.32,774.861z"/>
		<path style="fill:#949289;" d="M358.787,689.513c-24.893,24.893,56.899,152.916,96.017,184.921
			c39.118,32.006,92.461,14.224,135.135-10.669c42.674-24.893,88.905-64.011,92.461-81.792c3.556-17.781-3.556-56.899-46.231-78.236
			C593.495,682.4,480.71,656.555,417.71,661.99C387.236,664.619,369.455,678.845,358.787,689.513z M443.115,670.56
			c51.916-9.889,155.748,29.666,190.582,43.065c34.834,13.399,39.332,33.572,39.332,53.35s-27.194,56.86-61.805,66.749
			c-34.611,9.889-145.859-7.417-163.164-32.138C430.754,776.864,413.872,676.13,443.115,670.56z"/>
		<path style="fill:#949289;" d="M746.411,173.865c-22.185,3.698-98.938,65.363-160.028,149.36
			c-28.45,39.118-39.118,152.917-39.118,188.478s106.686,85.348,131.579,88.904c24.893,3.556,92.461-28.449,106.685-60.455
			c14.225-32.006,35.561-131.579,17.781-227.596C785.529,216.539,767.748,170.309,746.411,173.865z M801.582,368.953
			c2.472,46.971-98.888,135.97-131.026,143.387c-32.138,7.417-88.998-145.859-86.526-165.637
			c2.472-19.777,108.776-143.386,168.108-160.692C766.575,181.8,799.11,321.982,801.582,368.953z"/>
		<path style="fill:#949289;" d="M426.354,116.966c35.561,46.23,99.573,106.686,135.135,106.686
			c35.562,0,113.798-103.13,128.023-124.467C700.088,83.322,664.709,33.777,611.065,0h-17.042
			c25.705,15.408,54.221,38.844,81.479,69.818c20.787,23.622-84.055,71.693-116.193,86.526
			C527.17,171.178,418.394,57.457,415.921,40.152c-1.355-9.485,21.8-26.397,49.109-40.152h-20.461
			c-10.763,6.387-19.625,12.641-25.327,17.393C397.905,35.174,390.793,70.736,426.354,116.966z"/>
		<path style="fill:#949289;" d="M281.128,854.932c-21.552-14.564-92.273,85.538-110.819,122.631
			c-14.225,28.449,24.894,124.467,39.118,145.804c14.225,21.337,131.579-71.123,149.36-99.573
			C376.567,995.344,310.155,874.548,281.128,854.932z M344.229,964.748c9.889,24.722-98.887,88.999-123.609,98.887
			s-37.083-46.971-42.027-59.332c-4.944-12.361,42.027-108.776,96.415-140.915C294.631,851.794,334.341,940.027,344.229,964.748z"/>
		<path style="fill:#949289;" d="M597.051,1126.924c24.893,17.781,74.68,60.455,106.685,49.786
			c32.006-10.669,156.472-170.696,163.585-202.703c7.113-32.006-17.781-113.798-74.68-120.911
			c-56.899-7.112-216.928,85.349-245.377,106.686C525.045,976.447,572.158,1109.143,597.051,1126.924z M621.114,930.138
			c22.25-19.777,145.28-62.611,171.527-67.152c28.786-4.98,53.442,49.847,63.331,77.041c9.889,27.194-93.943,93.943-123.609,108.776
			s-123.609-12.361-138.442-29.666C585.256,1009.029,598.865,949.915,621.114,930.138z"/>
		<path style="fill:#949289;" d="M882.732,122.361c38.402-1.536,136.712-67.589,145.929-81.413
			c2.474-3.71,7.059-19.235,12.173-40.947h-50.979c-17.659,20.518-35.984,37.086-49.83,42.624
			C916.686,51.96,865.932,26.041,828.431,0h-72.642c1.308,23.796,6.326,44.736,11.735,53.236
			C778.277,70.133,844.33,123.897,882.732,122.361z"/>
		<path style="fill:#949289;" d="M1011.764,312.837c30.723-13.825,62.98-49.155,69.125-66.052
			c6.145-16.897,4.608-102.919-10.753-105.991c-17.175-3.435-95.238,13.825-125.96,26.114
			c-30.722,12.289-59.909,38.402-67.589,53.763c-7.68,15.361-12.289,113.672-1.536,129.033
			C885.804,365.064,981.041,326.662,1011.764,312.837z M986.997,166.233c29.667-9.889,59.976-18.741,78.196-13.079
			c19.525,6.068,8.331,69.939,8.331,84.772s-96.415,56.86-126.082,59.333c-29.667,2.473-54.388-61.805-54.388-76.638
			C893.054,205.789,957.33,176.122,986.997,166.233z"/>
		<path style="fill:#949289;" d="M1125.435,83.959c15.361-3.072,36.867-27.65,32.259-35.331
			c-4.608-7.681-32.258-41.475-46.083-43.011c-15.569-1.73-21.505,47.619-24.577,62.98
			C1083.961,83.958,1110.073,87.031,1125.435,83.959z M1114.082,13.034c15.837,2.548,36.079,34.535,28.662,41.951
			s-46.971,17.306-46.972,4.945C1095.771,47.569,1100.039,10.774,1114.082,13.034z"/>
		<path style="fill:#949289;" d="M1237.57,349.703c19.97,6.145,61.445-58.371,69.125-75.268
			c7.68-16.897,42.474-99.029,24.577-122.889c-9.217-12.288-72.196-36.866-130.568-35.33c-26.149,0.688-38.402,7.681-44.547,23.041
			c-6.145,15.361-18.434,107.527-13.825,132.105S1217.601,343.559,1237.57,349.703z M1177.355,129.151
			c17.305-7.416,93.944,0,145.859,29.666c16.764,9.58-17.306,101.359-34.611,121.137s-111.247-44.499-126.081-61.805
			S1160.051,136.567,1177.355,129.151z"/>
		<path style="fill:#949289;" d="M910.381,428.043c-23.042,16.897-25.23,74.421-28.302,105.144
			c-3.072,30.722,55.299,129.031,82.949,153.609s120.468,26.961,137.365,25.425c16.897-1.536,70.66-129.032,82.949-168.971
			c12.289-39.938,23.042-90.63,9.217-107.527c-13.825-16.897-98.311-58.371-127.496-59.908
			C1037.878,374.28,933.423,411.146,910.381,428.043z M1187.211,447.231c10.277,20.555-39.055,174.718-55.498,184.995
			c-16.443,10.277-94.553,22.61-125.386,2.056c-30.833-20.555-82.22-191.162-67.831-203.495
			c14.389-12.333,100.734-42.938,131.552-45.221C1125.547,381.456,1176.934,426.677,1187.211,447.231z"/>
		<path style="fill:#949289;" d="M1397.324,171.515c9.217-3.072,36.866-35.331,36.866-44.547s-19.969-21.505-30.722-21.505
			c-14.162,0-21.505,19.969-21.505,35.331C1381.964,153.46,1388.107,174.587,1397.324,171.515z M1405.94,115.352
			c8.561-1.438,18.634,6.383,18.634,13.799c0,7.417-22.25,29.666-27.194,19.777C1392.436,139.04,1388.973,118.203,1405.94,115.352z"
			/>
		<path style="fill:#949289;" d="M1337.747,432.286c1.536,29.186,92.165,115.208,118.279,129.032s128.703-21.14,140.991-33.429
			c12.288-12.289,33.794-153.61,24.577-178.188c-9.217-24.578-124.424-142.857-168.971-153.61
			c-22.198-5.358-69.125,78.34-98.311,127.496S1336.211,403.101,1337.747,432.286z M1372.658,309.621
			c12.361-24.722,58.047-108.942,79.109-101.36c61.805,22.25,168.109,143.387,165.637,160.692
			c-2.473,17.306-74.165,93.943-111.248,84.054C1469.073,443.118,1360.297,334.342,1372.658,309.621z"/>
		<path style="fill:#949289;" d="M1378.892,0h-165.334c33.856,21.352,73.738,42.3,90.065,44.019
			C1332.809,47.091,1369.675,17.425,1378.892,0z"/>
		<path style="fill:#949289;" d="M1466.449,17.905c3.072,15.361,50.43,109.774,67.326,120.526
			c16.896,10.753,124.424,73.732,145.929,73.732s72.46-37.577,72.46-48.33c0-10.753-41.475-125.96-92.166-159.754
			c-2.026-1.351-4.667-2.721-7.83-4.081h-22.402c39.555,15.43,91.472,104.429,103.832,131.623
			c12.36,27.194-86.526,0.001-123.609-12.361S1488.85,22.847,1486.378,3.069c-0.136-1.087,0.042-2.107,0.476-3.069h-16.893
			C1465.232,5.234,1465.125,11.284,1466.449,17.905z"/>
		<path style="fill:#949289;" d="M1836.649,157.69c12.289,18.433,53.763-16.897,69.124-27.65
			c15.361-10.753,75.27-64.517,66.053-78.341c-7.855-11.784-41.475-16.897-81.413-19.969c-39.938-3.072-89.094,6.145-96.774,12.289
			C1785.958,50.164,1824.36,139.257,1836.649,157.69z M1817.651,47.568c96.415-19.778,158.221,4.944,145.859,14.833
			c-12.361,9.889-74.165,37.082-91.471,32.138C1854.734,89.596,1803.53,50.465,1817.651,47.568z"/>
		<path style="fill:#949289;" d="M207.333,1959.679c-8.831,0.315-32.112,16.645-61.27,40.321h11.338
			c22.537-16.899,41.928-29.008,53.329-31.541c12.252-2.724,31.746,13.148,48.689,31.541h6.773
			C244.979,1975.865,221.945,1959.156,207.333,1959.679z"/>
		<path style="fill:#949289;" d="M444.569,2000h20.462c22.515-11.341,47.854-20.535,64.611-21.652
			c15.996-1.066,38.796,6.316,64.381,21.652h17.042c-18.51-11.654-39.189-21.437-60.912-27.304
			C517.89,1963.982,474.078,1982.49,444.569,2000z"/>
		<path style="fill:#949289;" d="M1062.456,1798.244c-9.218-33.795-19.971-47.619-47.62-53.764
			c-27.649-6.145-73.732-7.68-115.207,4.608c-15.863,4.7-115.208,141.32-133.641,181.259c-9.16,19.848-11.491,46.144-10.199,69.652
			h72.643c-22.083-15.335-39.573-30.712-44.154-38.958c-12.361-22.249,96.416-185.415,121.137-200.247
			c24.722-14.834,93.944-14.833,128.554,4.944c18.339,10.479,17.306,93.942,14.833,131.026
			c-1.55,23.236-29.31,68.799-58.947,103.234h50.979C1054.775,1940.815,1072.653,1835.63,1062.456,1798.244z"/>
		<path style="fill:#949289;" d="M1371.212,1878.12c-9.217-18.433-99.846-121.353-127.496-127.496
			c-22.692-5.042-79.877,73.733-92.166,101.383s-3.073,87.558,7.68,105.991c4.737,8.121,27.665,25.187,54.328,42.002h165.334
			C1388.108,1982.575,1380.429,1896.553,1371.212,1878.12z M1365.241,1958.57c-12.361,7.416-84.054,24.721-106.304,7.416
			s-88.999-103.832-76.638-131.025c12.361-27.194,50.069-80.9,64.276-76.639c24.722,7.417,101.36,103.832,114.747,119.798
			S1377.603,1951.153,1365.241,1958.57z"/>
		<path style="fill:#949289;" d="M1520.213,1984.111c-29.714,3.496-44.01,8.981-50.251,15.889h16.892
			c7.873-17.465,105.423-14.624,142.912,0h22.404C1626.569,1988.993,1566.699,1978.643,1520.213,1984.111z"/>
		<path style="fill:#949289;" d="M1844.331,295.94c12.289-4.608-10.753-56.836-38.402-53.764
			c-21.429,2.381-73.733,33.794-93.702,52.227s-10.753,32.258-3.072,39.939C1716.835,342.023,1832.042,300.549,1844.331,295.94z
			 M1805.929,252.065c26.63-2.473,38.918,27.889,31.501,30.361c-7.417,2.472-116.192,22.25-123.609,22.25
			S1786.789,253.843,1805.929,252.065z"/>
		<path style="fill:#949289;" d="M1689.186,624.666c13.824,3.072,69.124-69.125,76.805-89.094
			c7.681-19.969,18.434-47.619,12.289-72.197s-21.507-70.661-36.867-72.197c-21.453-2.145-59.907,29.186-69.124,41.475
			s-23.041,109.063-26.113,133.64C1643.103,590.871,1675.361,621.593,1689.186,624.666z M1676.737,445.591
			c9.889-17.305,43.956-46.972,66.749-46.972c17.306,0,32.139,64.277,32.139,84.055c0,19.778-27.194,51.916-51.916,71.693
			c-24.722,19.778-49.444-7.417-54.389-19.778C1664.376,522.228,1666.849,462.896,1676.737,445.591z"/>
		<path style="fill:#949289;" d="M1789.031,641.563c21.505,0,98.311-12.289,110.6-32.258s38.402-70.66,29.186-82.949
			c-9.217-12.289-48.169-29.253-64.516-33.794C1836.651,484.88,1767.526,641.563,1789.031,641.563z M1862.151,499.979
			c16.583-5.528,54.387,32.138,56.859,42.027c2.473,9.889-24.722,42.027-44.499,54.388c-19.777,12.361-59.333,0-66.749-7.417
			S1839.902,507.396,1862.151,499.979z"/>
		<path style="fill:#949289;" d="M813.611,655.386c-18.834-2.511-77.074,10.961-90.63,21.505
			c-13.825,10.753,15.361,98.311,33.794,109.063s90.629-24.578,101.382-33.794C868.911,742.943,836.652,658.458,813.611,655.386z
			 M737.307,727.419c-12.361-12.361-11.854-48.056,4.944-51.916c16.798-3.86,51.916-14.833,69.221-12.361
			c21.89,3.127,34.611,51.916,42.027,66.749C860.917,744.724,749.668,739.779,737.307,727.419z"/>
		<path style="fill:#949289;" d="M1254.471,554.003c-22.365,0-75.268,130.568-90.629,164.362
			c-15.361,33.794-23.042,84.485-21.506,102.918s62.98,70.661,87.558,75.269s90.631-92.166,101.383-116.744
			c10.752-24.578,38.402-98.311,36.866-110.599C1366.606,656.922,1288.265,554.003,1254.471,554.003z M1342.992,643.366
			c12.361,27.194,0,91.471-17.306,118.665c-17.306,27.194-81.582,91.471-96.415,74.165c-14.833-17.306-56.86-121.137-46.972-145.859
			s58.504-110.559,74.165-123.609C1271.298,554.367,1330.631,616.172,1342.992,643.366z"/>
		<path style="fill:#949289;" d="M1394.256,910.378c16.896-3.072,109.063-13.825,122.888-29.186
			c13.824-15.361,64.517-124.424,62.98-135.177c-1.536-10.752-3.072-44.547-21.506-53.764
			c-18.434-9.217-64.491-30.125-78.341-19.969c-46.083,33.794-105.99,153.61-105.99,170.507
			C1374.287,859.687,1377.359,913.45,1394.256,910.378z M1407.269,786.752c17.306-29.667,69.099-109.881,88.999-108.776
			c44.5,2.472,76.638,42.027,76.638,56.86s-17.306,64.277-37.083,79.11s-59.332,56.86-81.582,54.388
			C1431.99,865.863,1389.963,816.419,1407.269,786.752z"/>
		<path style="fill:#949289;" d="M1750.63,716.83c-32.259-6.144-84.644-9.563-96.773,3.072
			c-36.866,38.402-59.907,175.115-59.907,195.084c0,19.969,79.877,21.505,99.846,16.897s104.455-38.403,113.672-62.98
			c9.217-24.577,13.824-110.599,7.681-121.352C1809.004,736.799,1782.889,722.974,1750.63,716.83z M1800.347,855.974
			c-12.36,12.361-93.943,49.443-108.776,44.499c-14.833-4.944-74.166-66.749-66.749-93.943s30.476-79.491,56.86-86.527
			c37.083-9.889,101.359,9.889,113.721,24.722S1812.707,843.613,1800.347,855.974z"/>
		<path style="fill:#949289;" d="M337.642,1357.827c33.794,12.289,176.432,28.741,205.619,21.061
			c29.186-7.681,53.763-49.155,55.299-61.444c1.536-12.289-10.753-55.299-46.083-101.382
			c-35.33-46.083-102.958-126.401-118.28-127.496c-21.505-1.536-76.805,27.649-104.455,50.691
			c-27.65,23.041-63.711,55.222-57.567,76.726C278.319,1237.487,303.848,1345.538,337.642,1357.827z M292.314,1187.245
			c19.777-22.25,81.582-74.166,145.859-84.055c28.6-4.4,86.527,88.998,93.943,101.359s-101.36,81.583-133.498,91.472
			c-32.138,9.889-88.999-22.25-101.359-32.139C284.897,1253.994,272.536,1209.495,292.314,1187.245z"/>
		<path style="fill:#949289;" d="M53.245,1131.579c32.258-3.072,64.516-15.362,64.516-29.187c0-13.824-13.825-64.516-30.722-75.269
			c-14.018-8.921-69.625-18.432-87.04-15.36v9.844c15.428-7.415,64.706-3.801,87.039,17.878c9.792,9.506,17.388,34.04,19.86,46.4
			c1.929,9.646-69.101,7.813-106.899-2.121v45.177C18.387,1132.19,38.973,1132.938,53.245,1131.579z"/>
		<path style="fill:#949289;" d="M120.833,1587.8c33.794-19.97,101.383-132.104,105.991-141.32c4.608-9.216,6.145-24.578-7.68-82.95
			c-13.825-58.372-46.768-150.544-72.197-156.682C96.288,1194.619,41.662,1194.81,0,1198.659v13.857
			c49.208-6.923,113.635-6.944,146.454,11.811c21.465,12.266,54.388,111.249,59.332,138.443
			c4.944,27.194-56.86,111.249-81.582,131.026c-14.486,11.589-73.957-26.905-124.205-67.233v124.688
			C48.698,1577.993,102.123,1598.856,120.833,1587.8z"/>
		<path style="fill:#949289;" d="M610.418,1461.482c-43.644-5.456-255.436,26.859-294.599,43.645
			c-19.095,8.184-43.645,70.922-43.645,81.833c0,34.343,73.65,62.737,92.744,65.466c38.189,5.456,125.478,49.101,174.578,27.278
			s201.854-87.289,190.943-114.566C719.529,1537.86,654.063,1466.938,610.418,1461.482z M517.282,1619.878
			c-37.082,2.473-207.663-49.443-220.024-66.749c-12.361-17.306,19.777-34.611,42.027-42.027s232.386-49.443,279.357-39.555
			c33.695,7.094,64.276,54.388,76.638,66.749C707.641,1550.657,554.365,1617.405,517.282,1619.878z"/>
		<path style="fill:#949289;" d="M195.716,1735.133c12.415,0-9.311-40.348-18.622-43.451
			c-16.895-5.632-118.918-18.022-177.095-22.85v5.361c74.174,1.624,176.935,23.746,186.009,39.628
			c9.889,17.306-17.305,12.361-42.027,12.361c-18.169,0-104.429-27.817-143.982-42.729v48.296
			C74.491,1736.544,187.343,1735.133,195.716,1735.133z"/>
		<path style="fill:#949289;" d="M419.18,1853.072c-36.692-52.417-110.149-123.061-130.353-108.629
			c-21.725,15.519-68.281,90.007-55.866,111.732c12.415,21.726,83.799,121.042,117.939,114.835
			C385.04,1964.804,440.906,1884.108,419.18,1853.072z M373.895,1926.43c-22.249-7.416-118.665-93.943-113.721-108.776
			c4.944-14.833,13.835-63.649,37.083-66.749c37.083-4.944,106.304,96.415,111.249,116.192
			C413.451,1886.874,396.145,1933.846,373.895,1926.43z"/>
		<path style="fill:#949289;" d="M74.674,1958.597c34.14-12.415,111.732-130.354,65.177-145.872
			c-47.883-15.961-90.157-21.925-127.25-24.83c-4.268-0.334-8.469-0.617-12.601-0.852v5.827c4.19-0.016,8.396-0.023,12.601-0.031
			c51.561-0.093,116.548,14.926,131.381,37.175c14.833,22.249-59.333,103.832-88.999,106.305
			c-10.954,0.913-32.021-1.547-54.983-5.632v30.443C32.675,1963.55,61.619,1963.344,74.674,1958.597z"/>
		<path style="fill:#949289;" d="M1889.369,412.129c10.66,7.995,56.266,30.966,110.631,56.944V424.94
			c-5.998-3.369-10.869-6.426-14.24-9.019c-32.139-24.722-64.277-71.693-44.5-76.638c9.398-2.35,33.312-4.697,58.74-4.925v-9.496
			c-40.773,1.331-90.89,8.427-139.08,23.255C1835.035,356.083,1860.92,390.792,1889.369,412.129z"/>
		<path style="fill:#949289;" d="M1953.381,177.421c-12.009,13.51,11.466,23.852,46.619,30.223v-76.775
			C1977.614,152.315,1960.403,169.52,1953.381,177.421z"/>
		<path style="fill:#949289;" d="M1900.039,753.523c-2.018,20.176,48.622,78.127,99.961,124.495V718.53
			c-14.182-45.873-17.958-98.582,0-114.72v-10.236c-1.179,0.024-2.355,0.049-3.514,0.092
			C1952.15,595.281,1903.595,717.961,1900.039,753.523z"/>
		<path style="fill:#949289;" d="M1958.008,1103.929c-0.857,12.847,18.821,20.917,41.992,25.013v-45.177
			c-10.641-2.797-18.65-6.235-21.654-10.24c-7.417-9.889,6.227-44.502,21.654-51.917v-9.844
			C1982.585,1014.835,1959.543,1080.887,1958.008,1103.929z"/>
		<path style="fill:#949289;" d="M1884.832,1297.816c-13.824,32.258,8.844,167.901,27.277,190.943
			c12.449,15.563,48.635,40.937,87.891,62.492v-124.688c-35.504-28.494-66.405-57.902-73.57-71.209
			c-17.306-32.139-12.361-108.776,12.361-126.082c9.094-6.365,32.577-12.729,61.209-16.756v-13.857
			c-31.608,2.921-55.757,7.947-65.034,11.261C1913.461,1217.601,1898.656,1265.559,1884.832,1297.816z"/>
		<path style="fill:#949289;" d="M1935.009,1719.615c2.021,6.062,29.04,9.82,64.991,12.135v-48.296
			c-14.267-5.379-22.457-9.078-19.182-9.188c6.104-0.203,12.53-0.219,19.182-0.073v-5.361c-14.934-1.239-26.981-1.98-33.955-1.98
			C1931.905,1666.852,1928.801,1700.994,1935.009,1719.615z"/>
		<path style="fill:#949289;" d="M1879.143,1800.31c-21.726,15.518-49.658,121.043-15.518,136.562
			c21.085,9.584,83.601,20.35,136.375,24.259v-30.443c-39.228-6.98-83.991-18.71-93.348-26.507
			c-14.834-12.361-25.467-83.31-14.834-93.943c15.895-15.895,60.986-17.188,108.182-17.366v-5.827
			C1938.256,1783.54,1892.323,1790.896,1879.143,1800.31z"/>
		<path style="fill:#949289;" d="M682.992,1716.511c-31.037,0-133.458,49.658-155.183,62.073s-9.311,80.695,9.31,93.109
			c18.622,12.414,124.146,71.385,145.873,55.866c21.726-15.519,77.591-99.317,74.488-124.146S704.717,1716.511,682.992,1716.511z
			 M692.806,1874.513c-12.361,14.833-113.721-19.777-131.026-34.61c-17.305-14.833-7.416-59.333,2.473-69.222
			c9.889-9.889,96.564-44.062,118.739-44.28c27.527-0.271,49.37,46.752,59.258,59.113
			C752.139,1797.875,705.167,1859.68,692.806,1874.513z"/>
		<path style="fill:#949289;" d="M398.37,1743.08c1.64,8.199,21.319,39.357,31.158,36.077c9.839-3.28,38.137-23.759,32.797-34.437
			c-3.28-6.559-22.958-9.84-35.317-11.017C409.244,1732.013,396.73,1734.881,398.37,1743.08z M450.53,1741.015
			c17.305,4.944,9.889,14.833-4.944,22.25c-14.833,7.417-32.139-19.778-32.139-19.778
			C423.336,1736.069,433.225,1736.07,450.53,1741.015z"/>
		<path style="fill:#949289;" d="M865.737,1515.137c21.318-8.199,88.553-100.032,90.193-119.711
			c1.64-19.679,9.839-60.676-19.679-78.715c-29.518-18.039-133.441-64.294-155.789-59.035
			c16.177,3.735,132.37,45.762,157.092,68.012c18.191,16.372,4.944,81.583-2.472,96.416s-121.137,7.415-155.747-14.834
			c-34.611-22.249-59.332-66.749-56.86-81.582c1.761-10.564,22.222-42.47,39.697-58.611c-31.071,21.726-74.299,73.017-71.902,88.992
			C695.189,1388.866,844.418,1523.336,865.737,1515.137z"/>
		<path style="fill:#949289;" d="M770.623,1695.523c8.2,1.64,57.396,8.2,88.554,1.641c31.158-6.56,63.955-24.599,47.557-34.438
			c-16.398-9.839-98.15-44.513-113.152-42.638c-13.119,1.64-21.319,13.119-26.238,29.519
			C762.424,1666.007,762.424,1693.884,770.623,1695.523z M798.526,1627.506c34.027,0.212,101.943,41.815,99.471,44.287
			c-19.934,19.93-88.999,9.89-98.888,0S781.148,1627.397,798.526,1627.506z"/>
		<path style="fill:#949289;" d="M990.368,1587.292c22.957,14.759,131.191,31.157,152.509,24.598s59.035-31.157,62.313-54.117
			c4.173-29.223-24.597-145.948-32.796-165.627s-18.039-21.318-37.717-24.598c-19.678-3.279-87.701,4.628-100.033,11.478
			c-14.759,8.199-42.637,73.795-44.277,90.193C988.727,1485.618,967.41,1572.533,990.368,1587.292z M1041.386,1389.965
			c19.778-7.417,91.472-17.306,111.249-12.361c20.632,5.158,32.138,86.526,34.61,108.776s-86.527,69.222-108.776,74.166
			s-64.277-76.638-71.693-88.999C999.359,1459.186,1021.607,1397.382,1041.386,1389.965z"/>
		<path style="fill:#949289;" d="M900.469,1182.3c21.729,43.457,92.336,76.539,111.249,81.582
			c37.083,9.889,153.275,27.194,168.108,7.417c26.409-35.212,79.11-170.581,66.749-200.247
			c-12.361-29.666-58.889-121.603-88.998-123.61c-37.082-2.472-145.86,49.443-165.637,56.86
			c-19.777,7.417-88.419,50.468-98.887,76.639C883.164,1105.662,888.108,1157.578,900.469,1182.3z M959.804,1036.441
			c44.5-27.194,188.482-87.266,210.136-69.221c14.834,12.361,61.805,88.999,64.276,116.192s-14.833,111.249-44.499,118.665
			s-182.942,4.944-202.72-17.305C967.221,1162.524,915.305,1063.636,959.804,1036.441z"/>
		<path style="fill:#949289;" d="M1038.912,925.192c17.306-9.889,51.915-51.916,27.193-71.693
			c-42.862-34.29-116.393-66.711-132.521-63.595c-16.329,3.154-40.532,11.679-40.532,24.04c0,12.361,39.555,84.054,56.86,96.415
			C967.218,922.72,1021.606,935.081,1038.912,925.192z M944.971,865.861c-14.834-17.305-32.521-70.006-11.386-68.54
			c45.474,3.153,115.218,51.235,127.58,63.596s4.944,39.555-12.361,39.555S959.804,883.166,944.971,865.861z"/>
		<path style="fill:#949289;" d="M1310.853,999.358c12.361-9.889,40.233-41.248,29.666-44.5
			c-2.475,7.416-17.303,29.667-29.664,32.14c-12.361,2.472-44.499-14.833-37.083-19.777c4.328-2.886,28.019-11.661,46.018-15.524
			c-30.441-1.038-65.315,10.514-63.325,20.467C1258.936,984.524,1298.491,1009.246,1310.853,999.358z"/>
		<path style="fill:#949289;" d="M1545.867,1000.206c-22.914-15.351-101.48-27.403-138.655-20.048
			c32.387-4.742,123.599,12.917,136.028,31.562c9.889,14.833,12.361,96.415,4.944,111.249s-27.194,61.805-64.276,51.916
			s-111.249-91.472-121.138-113.721c-9.889-22.249,14.833-69.222,37.081-79.112c-22.249,7.417-71.694,56.86-69.222,74.165
			c2.473,17.305,44.499,135.971,69.222,148.332s109.168,17.996,126.081,12.36c7.417-2.472,34.61-56.86,34.61-81.582
			S1570.432,1016.663,1545.867,1000.206z"/>
		<path style="fill:#949289;" d="M1617.403,1157.578c12.192,17.07,128.554,84.054,150.804,76.638s93.943-61.805,101.359-86.526
			c11.027-36.76,20.372-151.392,2.473-153.276c-93.943-9.888-229.913,17.305-242.274,32.138
			C1617.403,1041.385,1605.043,1140.272,1617.403,1157.578z M1654.489,1026.553c27.194-9.889,203.012-34.827,217.552-14.833
			c19.777,27.194-9.889,135.971-34.61,143.387s-113.721,4.944-135.97-14.833S1627.295,1036.441,1654.489,1026.553z"/>
		<path style="fill:#949289;" d="M1303.436,1189.717c-9.889,4.945-46.972,66.749-42.027,79.109s42.027,46.972,69.222,49.444
			c27.194,2.473,49.556-18.345,44.499-27.194C1365.24,1273.771,1321.124,1180.871,1303.436,1189.717z"/>
		<path style="fill:#949289;" d="M1480.766,1302.637c-13.028,6.616-6.749,65.077-1.805,84.854s93.943,135.971,123.609,138.442
			s160.692-32.138,163.165-54.388s4.944-128.554-7.416-138.443s-135.972-56.855-163.679-56.902
			C1569.405,1276.157,1493.794,1296.021,1480.766,1302.637z M1745.96,1338.049c14.833,14.833,9.889,76.639,9.889,93.943
			s-133.497,46.972-163.164,39.555s-93.943-93.942-103.832-111.248s74.166-71.694,103.832-76.639
			C1619.618,1279.171,1731.127,1323.216,1745.96,1338.049z"/>
		<path style="fill:#949289;" d="M1595.154,1647.071c12.361,14.833,79.109,113.721,101.359,116.192s138.442-22.249,148.331-29.666
			s27.194-49.443,20.17-70.774s-69.613-42.946-84.447-47.891s-137.942-20.371-153.275-17.306
			C1614.931,1600.099,1582.793,1632.238,1595.154,1647.071z M1632.236,1609.988c56.86-17.306,207.663,29.667,217.552,46.972
			s-2.472,51.916-12.36,51.916s-103.832,9.889-128.554-4.944S1612.733,1615.924,1632.236,1609.988z"/>
		<path style="fill:#949289;" d="M1355.352,1548.184c17.305,0,133.498-14.833,126.082-32.139s-66.749-108.776-88.999-121.137
			c-22.25-12.36-147.574-54.943-150.804-42.027c-2.473,9.889,4.365,109.143,12.361,121.137
			C1263.881,1488.851,1338.047,1548.184,1355.352,1548.184z M1278.716,1362.771c24.722-2.473,106.305,29.666,121.138,46.972
			c14.833,17.306,76.638,96.415,59.332,98.888s-116.192-22.25-138.442-34.611S1263.956,1364.247,1278.716,1362.771z"/>
		<path style="fill:#949289;" d="M1202.076,1686.626c-35.091-21.055-84.393-24.047-91.471-9.889c-2.472,4.944,0,46.972,9.889,56.86
			s39.555,39.555,51.916,24.722S1214.438,1694.043,1202.076,1686.626z M1164.993,1731.128
			c-14.833-2.473-54.062-44.026-39.555-54.388c17.306-12.36,69.221,7.416,71.693,22.249S1179.826,1733.601,1164.993,1731.128z"/>
		<path style="fill:#949289;" d="M1315.797,1632.238c-19.9,6.633,12.361,69.222,27.194,81.582s227.44,79.11,244.746,76.638
			s-22.249-74.165-29.666-91.471s-32.139-79.11-69.222-79.11S1338.047,1624.822,1315.797,1632.238z M1565.487,1745.961
			c-9.889,0-123.609-27.194-145.858-37.083s-75.911-65.832-56.86-71.693c32.139-9.889,116.192-9.889,140.914-2.472
			S1575.376,1745.961,1565.487,1745.961z"/>
		<path style="fill:#949289;" d="M1399.852,1797.874c-15.384-2.797,14.832,61.806,32.138,81.583s49.444,37.082,64.277,37.082
			s66.749-24.721,61.805-32.138S1427.046,1802.818,1399.852,1797.874z M1483.905,1881.93c-19.777-9.889-82.138-68.465-69.222-71.693
			c19.777-4.944,135.971,74.165,135.971,74.165S1503.683,1891.818,1483.905,1881.93z"/>
		<path style="fill:#949289;" d="M1634.709,1872.04c-13.507,8.255,17.306,49.443,27.194,61.805s79.109,7.416,88.998,4.944
			s9.889-79.11,0-88.999S1679.208,1844.846,1634.709,1872.04z M1745.957,1926.429c-14.833,0-106.013-41.628-88.999-54.388
			c9.889-7.416,64.276-19.778,84.055-12.361S1760.79,1926.429,1745.957,1926.429z"/>
		<path style="fill:#A6A49A;" d="M484.919,354.222c2.349-21.137-103.337-171.446-140.914-176.143
			c-13.982-1.748-103.337,89.246-108.035,124.475c-4.697,35.229,72.806,171.446,140.915,178.492
			C444.994,488.091,482.57,375.359,484.919,354.222z"/>
		<path style="fill:#A6A49A;" d="M173.646,487.615c-12.361-19.777-87.633-135.9-101.36-143.387
			c-14.272-7.785-44.203-10.12-72.286-9.869v90.582C51.183,453.695,184.71,505.318,173.646,487.615z"/>
		<path style="fill:#A6A49A;" d="M190.952,153.873c42.027-17.305,111.249-91.471,98.888-113.721
			C284.409,30.376,272.697,14.414,259.419,0H157.4C91.966,49.065,0,138.528,0,151.4C0,168.705,148.925,171.178,190.952,153.873z"/>
		<path style="fill:#A6A49A;" d="M415.921,40.152c2.472,17.305,111.248,131.026,143.387,116.193
			c32.138-14.833,136.98-62.905,116.193-86.526C648.243,38.844,619.727,15.408,594.022,0H465.03
			C437.721,13.755,414.566,30.667,415.921,40.152z"/>
		<path style="fill:#A6A49A;" d="M584.03,346.703c-2.472,19.777,54.388,173.053,86.526,165.637
			c32.138-7.416,133.498-96.415,131.026-143.387c-2.472-46.971-35.007-187.153-49.444-182.942
			C692.806,203.317,586.502,326.926,584.03,346.703z"/>
		<path style="fill:#A6A49A;" d="M947.442,297.259c29.667-2.473,126.082-44.499,126.082-59.333s11.194-78.704-8.331-84.772
			c-18.22-5.662-48.529,3.19-78.196,13.079s-93.943,39.555-93.943,54.388C893.054,235.455,917.775,299.732,947.442,297.259z"/>
		<path style="fill:#A6A49A;" d="M940.025,42.624C953.87,37.086,972.196,20.518,989.854,0H828.431
			C865.932,26.041,916.686,51.96,940.025,42.624z"/>
		<path style="fill:#A6A49A;" d="M1142.744,54.985c7.417-7.417-12.825-39.403-28.662-41.951
			c-14.043-2.259-18.311,34.535-18.31,46.896C1095.773,72.29,1135.327,62.401,1142.744,54.985z"/>
		<path style="fill:#A6A49A;" d="M1288.604,279.954c17.306-19.778,51.375-111.558,34.611-121.137
			c-51.915-29.666-128.555-37.082-145.859-29.666c-17.305,7.417-29.667,71.693-14.833,88.999S1271.298,299.732,1288.604,279.954z"/>
		<path style="fill:#A6A49A;" d="M1486.378,3.069c2.472,19.778,86.527,103.832,123.61,116.193s135.97,39.555,123.609,12.361
			C1721.237,104.429,1669.32,15.43,1629.766,0h-142.912C1486.42,0.962,1486.242,1.982,1486.378,3.069z"/>
		<path style="fill:#A6A49A;" d="M1506.156,453.007c37.083,9.889,108.775-66.748,111.248-84.054
			c2.473-17.306-103.832-138.443-165.637-160.692c-21.063-7.582-66.748,76.638-79.109,101.36
			C1360.297,334.342,1469.073,443.118,1506.156,453.007z"/>
		<path style="fill:#A6A49A;" d="M1713.82,304.676c7.417,0,116.192-19.778,123.609-22.25c7.417-2.472-4.871-32.834-31.501-30.361
			C1786.789,253.843,1706.403,304.676,1713.82,304.676z"/>
		<path style="fill:#A6A49A;" d="M1872.04,94.54c17.306,4.944,79.109-22.249,91.471-32.138
			c12.361-9.889-49.444-34.611-145.859-14.833C1803.53,50.465,1854.734,89.596,1872.04,94.54z"/>
		<path style="fill:#A6A49A;" d="M1723.709,554.367c24.722-19.778,51.916-51.915,51.916-71.693
			c0-19.778-14.833-84.055-32.139-84.055c-22.793,0-56.86,29.667-66.749,46.972c-9.889,17.305-12.361,76.637-7.417,88.999
			C1674.265,546.951,1698.987,574.145,1723.709,554.367z"/>
		<path style="fill:#A6A49A;" d="M1807.763,588.977c7.416,7.417,46.972,19.778,66.749,7.417
			c19.777-12.361,46.972-44.499,44.499-54.388c-2.473-9.889-40.276-47.555-56.859-42.027
			C1839.902,507.396,1800.347,581.561,1807.763,588.977z"/>
		<path style="fill:#A6A49A;" d="M1454.24,868.335c22.25,2.472,61.805-39.555,81.582-54.388s37.083-64.276,37.083-79.11
			s-32.138-54.388-76.638-56.86c-19.9-1.106-71.693,79.109-88.999,108.776S1431.99,865.863,1454.24,868.335z"/>
		<path style="fill:#A6A49A;" d="M1681.682,720.003c-26.385,7.036-49.443,59.333-56.86,86.527s51.916,88.999,66.749,93.943
			c14.833,4.944,96.416-32.138,108.776-44.499c12.36-12.361,7.417-96.416-4.944-111.249S1718.765,710.114,1681.682,720.003z"/>
		<path style="fill:#A6A49A;" d="M1256.465,566.728c-15.661,13.051-64.276,98.888-74.165,123.609s32.139,128.553,46.972,145.859
			c14.833,17.306,79.109-46.972,96.415-74.165c17.306-27.194,29.667-91.471,17.306-118.665S1271.298,554.367,1256.465,566.728z"/>
		<path style="fill:#A6A49A;" d="M1424.574,129.151c0-7.416-10.073-15.238-18.634-13.799c-16.968,2.851-13.505,23.688-8.561,33.577
			C1402.324,158.817,1424.574,136.567,1424.574,129.151z"/>
		<path style="fill:#A6A49A;" d="M611.224,833.724c34.611-9.889,61.805-46.972,61.805-66.749s-4.497-39.95-39.332-53.35
			c-34.834-13.399-138.666-52.954-190.582-43.065c-29.243,5.57-12.361,106.304,4.944,131.026
			C465.365,826.308,576.613,843.613,611.224,833.724z"/>
		<path style="fill:#A6A49A;" d="M40.15,789.223c38.961,27.194,128.554,71.693,148.331,39.555
			c19.777-32.139,81.582-133.498,66.749-153.275C226.892,637.718,22.806,583.315,0,603.81v114.721
			C9.715,749.953,24.312,778.168,40.15,789.223z"/>
		<path style="fill:#A6A49A;" d="M275.008,863.389c-54.388,32.139-101.359,128.554-96.415,140.915
			c4.944,12.361,17.305,69.221,42.027,59.332s133.498-74.166,123.609-98.887C334.341,940.027,294.631,851.794,275.008,863.389z"/>
		<path style="fill:#A6A49A;" d="M106.899,1085.886c-2.472-12.36-10.068-36.895-19.86-46.4
			c-22.333-21.679-71.611-25.293-87.039-17.878v62.157C37.799,1093.698,108.829,1095.531,106.899,1085.886z"/>
		<path style="fill:#A6A49A;" d="M398.617,1296.021c32.138-9.889,140.915-79.11,133.498-91.472s-65.343-105.76-93.943-101.359
			c-64.277,9.889-126.082,61.805-145.859,84.055c-19.777,22.25-7.417,66.749,4.944,76.638
			C309.619,1273.771,366.479,1305.91,398.617,1296.021z"/>
		<path style="fill:#A6A49A;" d="M732.363,1048.803c29.667-14.833,133.498-81.582,123.609-108.776
			c-9.889-27.194-34.545-82.021-63.331-77.041c-26.248,4.541-149.278,47.375-171.527,67.152
			c-22.25,19.777-35.858,78.892-27.194,88.999C608.753,1036.441,702.696,1063.636,732.363,1048.803z"/>
		<path style="fill:#A6A49A;" d="M811.473,663.142c-17.306-2.472-52.423,8.5-69.221,12.361c-16.798,3.86-17.305,39.555-4.944,51.916
			c12.361,12.361,123.609,17.305,116.193,2.472C846.083,715.058,833.363,666.269,811.473,663.142z"/>
		<path style="fill:#A6A49A;" d="M1061.164,860.917c-12.361-12.361-82.105-60.443-127.58-63.596
			c-21.135-1.465-3.447,51.235,11.386,68.54c14.833,17.305,86.526,34.611,103.832,34.611S1073.525,873.277,1061.164,860.917z"/>
		<path style="fill:#A6A49A;" d="M1189.718,1202.078c29.666-7.416,46.971-91.472,44.499-118.665s-49.442-103.831-64.276-116.192
			c-21.654-18.045-165.637,42.026-210.136,69.221c-44.5,27.194,7.417,126.083,27.194,148.332
			C1006.775,1207.022,1160.052,1209.494,1189.718,1202.078z"/>
		<path style="fill:#A6A49A;" d="M1310.854,986.998c12.361-2.472,27.189-24.724,29.664-32.14c2.061-6.175-7.886-5.919-20.729-3.162
			c-17.999,3.863-41.689,12.639-46.018,15.524C1266.355,972.165,1298.493,989.47,1310.854,986.998z"/>
		<path style="fill:#A6A49A;" d="M1362.771,1061.164c9.889,22.249,84.056,103.832,121.138,113.721s56.859-37.082,64.276-51.916
			s4.944-96.416-4.944-111.249c-12.43-18.645-103.642-36.304-136.028-31.562c-2.985,0.437-5.482,1.06-7.36,1.894
			C1377.604,991.942,1352.882,1038.915,1362.771,1061.164z"/>
		<path style="fill:#A6A49A;" d="M1701.461,1140.273c22.249,19.777,111.248,22.249,135.97,14.833s54.388-116.192,34.61-143.387
			c-14.54-19.994-190.357,4.944-217.552,14.833C1627.295,1036.441,1679.212,1120.496,1701.461,1140.273z"/>
		<path style="fill:#A6A49A;" d="M1488.853,1360.299c9.889,17.306,74.165,103.831,103.832,111.248s163.164-22.25,163.164-39.555
			s4.944-79.11-9.889-93.943s-126.342-58.878-153.275-54.389C1563.019,1288.604,1478.964,1342.993,1488.853,1360.299z"/>
		<path style="fill:#A6A49A;" d="M1320.743,1474.019c22.25,12.361,121.137,37.084,138.442,34.611s-44.499-81.582-59.332-98.888
			c-14.833-17.306-96.416-49.444-121.138-46.972C1263.956,1364.247,1298.493,1461.657,1320.743,1474.019z"/>
		<path style="fill:#A6A49A;" d="M1078.469,1560.546c22.249-4.944,111.249-51.916,108.776-74.166s-13.979-103.618-34.61-108.776
			c-19.777-4.944-91.471,4.944-111.249,12.361c-19.778,7.417-42.027,69.221-34.61,81.582
			C1014.191,1483.908,1056.22,1565.49,1078.469,1560.546z"/>
		<path style="fill:#A6A49A;" d="M722.474,1325.688c-2.472,14.833,22.25,59.333,56.86,81.582
			c34.611,22.249,148.331,29.667,155.747,14.834s20.664-80.044,2.472-96.416c-24.722-22.25-140.915-64.276-157.092-68.012
			c-4.655-1.075-11.23,2.878-18.291,9.4C744.696,1283.218,724.235,1315.123,722.474,1325.688z"/>
		<path style="fill:#A6A49A;" d="M618.642,1471.547c-46.972-9.889-257.107,32.139-279.357,39.555s-54.388,24.722-42.027,42.027
			c12.361,17.306,182.942,69.222,220.024,66.749s190.359-69.221,177.998-81.582C682.918,1525.935,652.337,1478.641,618.642,1471.547
			z"/>
		<path style="fill:#A6A49A;" d="M124.205,1493.797c24.722-19.777,86.526-103.832,81.582-131.026
			c-4.944-27.194-37.867-126.178-59.332-138.443c-32.819-18.755-97.247-18.733-146.454-11.811v214.047
			C50.248,1466.892,109.718,1505.386,124.205,1493.797z"/>
		<path style="fill:#A6A49A;" d="M186.009,1713.821c-9.075-15.882-111.835-38.004-186.009-39.628v9.261
			c39.553,14.911,125.813,42.729,143.982,42.729C168.704,1726.183,195.898,1731.127,186.009,1713.821z"/>
		<path style="fill:#A6A49A;" d="M408.506,1867.097c-4.944-19.777-74.165-121.137-111.249-116.192
			c-23.247,3.1-32.139,51.916-37.083,66.749c-4.944,14.833,91.471,101.36,113.721,108.776
			C396.145,1933.846,413.451,1886.874,408.506,1867.097z"/>
		<path style="fill:#A6A49A;" d="M54.983,1936.318c29.666-2.473,103.831-84.056,88.999-106.305
			c-14.833-22.249-79.821-37.268-131.381-37.175c-4.205,0.008-8.41,0.016-12.601,0.031v137.816
			C22.962,1934.771,44.03,1937.231,54.983,1936.318z"/>
		<path style="fill:#A6A49A;" d="M1985.76,415.921c3.371,2.593,8.242,5.65,14.24,9.019v-90.582
			c-25.429,0.228-49.342,2.575-58.74,4.925C1921.482,344.228,1953.621,391.2,1985.76,415.921z"/>
		<path style="fill:#A6A49A;" d="M210.729,1968.459c-11.4,2.533-30.791,14.642-53.329,31.541h102.018
			C242.476,1981.607,222.981,1965.735,210.729,1968.459z"/>
		<path style="fill:#A6A49A;" d="M529.642,1978.348c-16.757,1.117-42.096,10.312-64.611,21.652h128.992
			C568.438,1984.664,545.638,1977.281,529.642,1978.348z"/>
		<path style="fill:#A6A49A;" d="M1033.969,1765.739c-34.61-19.777-103.833-19.778-128.554-4.944
			c-24.722,14.832-133.498,177.998-121.137,200.247c4.581,8.246,22.071,23.623,44.154,38.958h161.423
			c29.638-34.436,57.397-79.998,58.947-103.234C1051.274,1859.682,1052.308,1776.219,1033.969,1765.739z"/>
		<path style="fill:#A6A49A;" d="M1246.576,1758.322c-14.207-4.262-51.915,49.444-64.276,76.639
			c-12.361,27.193,54.388,113.721,76.638,131.025s93.942,0,106.304-7.416c12.361-7.417,9.469-64.484-3.918-80.45
			S1271.298,1765.739,1246.576,1758.322z"/>
		<path style="fill:#A6A49A;" d="M1486.854,2000h142.912C1592.276,1985.376,1494.727,1982.535,1486.854,2000z"/>
		<path style="fill:#A6A49A;" d="M2000,718.53V603.81C1982.042,619.948,1985.818,672.657,2000,718.53z"/>
		<path style="fill:#A6A49A;" d="M1978.346,1073.524c3.004,4.005,11.014,7.443,21.654,10.24v-62.157
			C1984.572,1029.023,1970.929,1063.636,1978.346,1073.524z"/>
		<path style="fill:#A6A49A;" d="M1926.43,1355.354c7.165,13.307,38.066,42.715,73.57,71.209v-214.047
			c-28.632,4.027-52.115,10.391-61.209,16.756C1914.068,1246.578,1909.124,1323.216,1926.43,1355.354z"/>
		<path style="fill:#A6A49A;" d="M1980.818,1674.267c-3.275,0.109,4.915,3.809,19.182,9.188v-9.261
			C1993.349,1674.048,1986.922,1674.063,1980.818,1674.267z"/>
		<path style="fill:#A6A49A;" d="M1906.652,1904.18c9.356,7.797,54.12,19.526,93.348,26.507V1792.87
			c-47.195,0.178-92.287,1.472-108.182,17.366C1881.186,1820.87,1891.818,1891.818,1906.652,1904.18z"/>
		<path style="fill:#A6A49A;" d="M897.998,1671.793c2.472-2.472-65.444-44.075-99.471-44.287
			c-17.378-0.108-9.306,34.397,0.583,44.287S878.064,1691.723,897.998,1671.793z"/>
		<path style="fill:#A6A49A;" d="M682.992,1726.4c-22.175,0.219-108.851,34.392-118.739,44.28
			c-9.889,9.889-19.778,54.389-2.473,69.222c17.305,14.833,118.666,49.443,131.026,34.61s59.333-76.638,49.444-88.999
			C732.361,1773.152,710.519,1726.129,682.992,1726.4z"/>
		<path style="fill:#A6A49A;" d="M1125.438,1676.74c-14.507,10.361,24.722,51.915,39.555,54.388s34.611-17.306,32.139-32.139
			S1142.744,1664.38,1125.438,1676.74z"/>
		<path style="fill:#A6A49A;" d="M1362.769,1637.185c-19.051,5.861,34.611,61.805,56.86,71.693s135.97,37.083,145.858,37.083
			s-37.083-103.831-61.805-111.248S1394.907,1627.296,1362.769,1637.185z"/>
		<path style="fill:#A6A49A;" d="M1708.874,1703.932c24.722,14.833,118.665,4.944,128.554,4.944s22.249-34.611,12.36-51.916
			s-160.691-64.277-217.552-46.972C1612.733,1615.924,1684.152,1689.099,1708.874,1703.932z"/>
		<path style="fill:#A6A49A;" d="M1741.013,1859.68c-19.778-7.417-74.166,4.945-84.055,12.361
			c-17.014,12.76,74.166,54.388,88.999,54.388S1760.791,1867.097,1741.013,1859.68z"/>
		<path style="fill:#A6A49A;" d="M1414.684,1810.236c-12.916,3.229,49.444,61.805,69.222,71.693s66.749,2.472,66.749,2.472
			S1434.461,1805.292,1414.684,1810.236z"/>
		<path style="fill:#A6A49A;" d="M445.586,1763.265c14.833-7.417,22.25-17.306,4.944-22.25c-17.305-4.944-27.194-4.945-37.083,2.472
			C413.447,1743.486,430.753,1770.682,445.586,1763.265z"/>
		<path style="fill:#A6A49A;" d="M1006.327,634.282c30.833,20.555,108.942,8.222,125.386-2.056
			c16.443-10.277,65.775-164.441,55.498-184.995c-10.277-20.555-61.664-65.775-117.163-61.665
			c-30.817,2.283-117.163,32.888-131.552,45.221C924.107,443.121,975.494,613.727,1006.327,634.282z"/>
	</g>
</g>
</svg>
